<svg width="475" height="302" viewBox="0 0 475 302" fill="none" xmlns="http://www.w3.org/2000/svg">
<path d="M36.5276 31.896L39.0236 10.152H50.7356L44.3036 45H29.5676L26.3036 25.56L22.5116 45H8.39961L1.96761 10.152H13.6796L16.1276 31.608L19.9676 10.152H32.7836L36.5276 31.896ZM81.9562 37.032C81.9562 38.12 82.0842 38.888 82.3402 39.336C82.5962 39.784 83.1082 40.104 83.8762 40.296L83.6842 44.808C82.6602 44.968 81.7642 45.08 80.9962 45.144C80.2602 45.208 79.2682 45.24 78.0202 45.24C75.2682 45.24 73.4442 44.632 72.5482 43.416C71.6522 42.168 71.2042 40.584 71.2042 38.664V37.464C70.2762 40.088 68.9162 42.04 67.1242 43.32C65.3642 44.6 63.1082 45.24 60.3562 45.24C57.1562 45.24 54.7402 44.6 53.1082 43.32C51.5082 42.04 50.7082 40.136 50.7082 37.608C50.7082 35.528 51.3962 33.896 52.7722 32.712C54.1482 31.528 56.2762 30.712 59.1562 30.264C56.7242 28.536 54.2922 27.032 51.8602 25.752C53.7802 23.32 55.9722 21.48 58.4362 20.232C60.9002 18.952 63.8922 18.312 67.4122 18.312C72.3402 18.312 75.9882 19.384 78.3562 21.528C80.7562 23.64 81.9562 26.904 81.9562 31.32V37.032ZM68.4202 26.76C66.7882 26.76 65.3482 27.032 64.1002 27.576C62.8522 28.12 61.7322 28.936 60.7402 30.024C62.6602 29.8 65.0602 29.688 67.9402 29.688C69.1242 29.688 69.9562 29.544 70.4362 29.256C70.9162 28.968 71.1562 28.6 71.1562 28.152C71.1562 27.768 70.9162 27.448 70.4362 27.192C69.9562 26.904 69.2842 26.76 68.4202 26.76ZM63.3802 37.416C65.1722 37.416 66.7882 37.08 68.2282 36.408C69.6682 35.704 70.6602 34.792 71.2042 33.672V32.424C70.4362 32.808 69.5882 33.112 68.6602 33.336C67.7322 33.528 66.6122 33.72 65.3002 33.912L63.5722 34.2C61.7802 34.552 60.8842 35.16 60.8842 36.024C60.8842 36.952 61.7162 37.416 63.3802 37.416ZM106.59 27.384C103.646 27.192 100.958 27.048 98.5264 26.952L98.4784 32.04C98.4784 33.768 98.8464 35.128 99.5824 36.12C100.35 37.08 101.694 37.56 103.614 37.56C104.35 37.56 105.054 37.496 105.726 37.368C105.598 38.552 105.534 39.752 105.534 40.968C105.534 41.544 105.566 42.856 105.63 44.904C104.222 45.16 103.038 45.32 102.078 45.384C101.118 45.448 99.8704 45.48 98.3344 45.48C94.5904 45.48 91.9344 44.584 90.3664 42.792C88.8304 40.968 88.0624 38.44 88.0624 35.208L88.1104 27.096C86.6064 27.16 85.0384 27.256 83.4064 27.384V18.888C85.0704 18.888 86.4784 18.36 87.6304 17.304C88.7824 16.248 89.4704 14.984 89.6944 13.512H102.75C101.118 15.752 99.3104 17.544 97.3264 18.888H106.59V27.384ZM117.28 31.896C117.344 33.528 117.856 34.84 118.816 35.832C119.808 36.824 121.264 37.32 123.184 37.32C124.24 37.32 125.184 37.128 126.016 36.744C126.848 36.328 127.616 35.72 128.32 34.92C131.04 35.976 134.224 36.888 137.872 37.656C136.816 40.12 135.024 42.04 132.496 43.416C130 44.792 126.752 45.48 122.752 45.48C117.408 45.48 113.456 44.232 110.896 41.736C108.336 39.24 107.056 35.96 107.056 31.896C107.056 27.832 108.336 24.552 110.896 22.056C113.456 19.56 117.408 18.312 122.752 18.312C126.752 18.312 130 19 132.496 20.376C135.024 21.752 136.816 23.672 137.872 26.136C135.024 26.744 131.84 27.656 128.32 28.872C127.616 28.072 126.848 27.48 126.016 27.096C125.184 26.68 124.24 26.472 123.184 26.472C121.264 26.472 119.808 26.968 118.816 27.96C117.856 28.952 117.344 30.264 117.28 31.896ZM158.273 45C158.465 40.296 158.561 35.96 158.561 31.992C158.561 30.584 158.209 29.464 157.505 28.632C156.833 27.8 155.969 27.384 154.913 27.384C153.793 27.384 152.833 27.928 152.033 29.016C151.265 30.104 150.881 31.592 150.881 33.48L150.833 33.384C150.833 38.6 150.897 42.472 151.025 45H139.553C139.809 40.392 139.937 34.152 139.937 26.28C139.937 18.408 139.809 12.168 139.553 7.56H150.977L151.025 22.344L150.977 24.888C151.745 22.648 152.881 21 154.385 19.944C155.921 18.856 157.649 18.312 159.569 18.312C161.489 18.312 163.153 18.744 164.561 19.608C165.969 20.44 167.025 21.576 167.729 23.016C168.465 24.456 168.833 26.072 168.833 27.864V34.776C168.833 39.032 168.913 42.44 169.073 45H158.273ZM210.282 18.792L209.178 21.576C206.138 29.672 202.954 37.48 199.626 45C197.898 48.84 195.402 51.912 192.138 54.216C188.874 56.552 184.778 57.672 179.85 57.576C179.242 54.92 178.73 52.84 178.314 51.336C177.93 49.864 177.418 48.376 176.778 46.872C178.538 47.288 180.186 47.496 181.722 47.496C184.218 47.496 186.202 46.968 187.674 45.912C186.522 42.488 185.162 38.808 183.594 34.872C182.026 30.936 179.754 25.576 176.778 18.792H188.154C188.538 20.392 189.066 22.248 189.738 24.36C190.41 26.472 191.082 28.504 191.754 30.456C191.946 31.064 192.25 31.992 192.666 33.24C193.114 34.456 193.466 35.48 193.722 36.312L194.97 32.52C197.37 25.576 198.794 21 199.242 18.792H210.282ZM223.359 45.48C217.887 45.48 213.855 44.232 211.263 41.736C208.703 39.208 207.423 35.896 207.423 31.8C207.423 27.8 208.703 24.552 211.263 22.056C213.855 19.56 217.887 18.312 223.359 18.312C227.039 18.312 230.111 18.92 232.575 20.136C235.071 21.32 236.911 22.936 238.095 24.984C239.279 27 239.871 29.272 239.871 31.8C239.871 35.928 238.495 39.24 235.743 41.736C233.023 44.232 228.895 45.48 223.359 45.48ZM223.551 37.32C225.631 37.32 227.183 36.824 228.207 35.832C229.231 34.84 229.743 33.512 229.743 31.848C229.743 30.28 229.231 29 228.207 28.008C227.183 26.984 225.631 26.472 223.551 26.472C221.471 26.472 219.951 26.968 218.991 27.96C218.031 28.952 217.551 30.248 217.551 31.848C217.551 33.512 218.031 34.84 218.991 35.832C219.951 36.824 221.471 37.32 223.551 37.32ZM270.846 18.792C270.622 22.824 270.51 27.176 270.51 31.848C270.51 36.552 270.622 40.936 270.846 45C268.798 44.904 267.182 44.856 265.998 44.856C264.878 44.856 263.262 44.904 261.15 45L259.758 37.944C259.022 40.504 257.87 42.408 256.302 43.656C254.734 44.872 252.91 45.48 250.83 45.48C248.91 45.48 247.246 45.064 245.838 44.232C244.43 43.368 243.358 42.216 242.622 40.776C241.918 39.336 241.566 37.72 241.566 35.928V29.016C241.566 24.76 241.486 21.352 241.326 18.792H252.126C251.934 23.496 251.838 28.152 251.838 32.76C251.838 34.168 252.174 35.288 252.846 36.12C253.55 36.952 254.43 37.368 255.486 37.368C256.478 37.368 257.342 36.936 258.078 36.072C258.846 35.176 259.31 33.96 259.47 32.424V31.32C259.534 28.824 259.566 27.096 259.566 26.136C259.566 23.928 259.502 21.48 259.374 18.792H270.846ZM283.917 25.896C285.261 21.064 288.605 18.648 293.949 18.648C294.877 18.648 295.773 18.712 296.637 18.84L295.101 29.592C292.797 28.728 290.909 28.296 289.437 28.296C287.613 28.296 286.269 28.84 285.405 29.928C284.541 31.016 284.109 32.472 284.109 34.296V34.248L284.061 37.416C284.061 39.688 284.125 42.216 284.253 45H272.781C273.037 40.392 273.165 36.04 273.165 31.944C273.165 27.848 273.037 23.464 272.781 18.792C274.893 18.888 276.509 18.936 277.629 18.936C278.813 18.936 280.429 18.888 282.477 18.792L283.917 25.896ZM22.9436 66.312C25.0236 66.312 26.8956 66.904 28.5596 68.088C30.2236 69.272 31.5196 70.888 32.4476 72.936C33.3756 74.952 33.8396 77.176 33.8396 79.608C33.8396 82.008 33.3756 84.28 32.4476 86.424C31.5196 88.536 30.2076 90.248 28.5116 91.56C26.8476 92.84 24.9436 93.48 22.7996 93.48C20.3036 93.48 18.1596 92.968 16.3676 91.944C14.6076 90.888 13.2956 89.272 12.4316 87.096C12.4316 88.92 12.4956 91.848 12.6236 95.88C12.7516 99.784 12.8156 102.536 12.8156 104.136H1.96761C2.15961 98.184 2.25561 91.96 2.25561 85.464C2.25561 78.968 2.15961 72.744 1.96761 66.792H11.1836L12.5756 72.792C13.4716 70.552 14.8156 68.92 16.6076 67.896C18.3996 66.84 20.5116 66.312 22.9436 66.312ZM17.8076 84.84C19.2476 84.84 20.4476 84.392 21.4076 83.496C22.3996 82.568 22.8956 81.368 22.8956 79.896C22.8956 78.264 22.4476 76.936 21.5516 75.912C20.6556 74.888 19.4396 74.376 17.9036 74.376C16.1436 74.376 14.8156 74.808 13.9196 75.672C13.0236 76.504 12.5756 77.912 12.5756 79.896C12.5756 81.016 12.8636 81.96 13.4396 82.728C14.0156 83.464 14.7036 84.008 15.5036 84.36C16.3036 84.68 17.0716 84.84 17.8076 84.84ZM46.4336 73.896C47.7776 69.064 51.1216 66.648 56.4656 66.648C57.3936 66.648 58.2896 66.712 59.1536 66.84L57.6176 77.592C55.3136 76.728 53.4256 76.296 51.9536 76.296C50.1296 76.296 48.7856 76.84 47.9216 77.928C47.0576 79.016 46.6256 80.472 46.6256 82.296V82.248L46.5776 85.416C46.5776 87.688 46.6416 90.216 46.7696 93H35.2976C35.5536 88.392 35.6816 84.04 35.6816 79.944C35.6816 75.848 35.5536 71.464 35.2976 66.792C37.4096 66.888 39.0256 66.936 40.1456 66.936C41.3296 66.936 42.9456 66.888 44.9936 66.792L46.4336 73.896ZM75.0836 93.48C69.6116 93.48 65.5796 92.232 62.9876 89.736C60.4276 87.208 59.1476 83.896 59.1476 79.8C59.1476 75.8 60.4276 72.552 62.9876 70.056C65.5796 67.56 69.6116 66.312 75.0836 66.312C78.7636 66.312 81.8356 66.92 84.2996 68.136C86.7956 69.32 88.6356 70.936 89.8196 72.984C91.0036 75 91.5956 77.272 91.5956 79.8C91.5956 83.928 90.2196 87.24 87.4676 89.736C84.7476 92.232 80.6196 93.48 75.0836 93.48ZM75.2756 85.32C77.3556 85.32 78.9076 84.824 79.9316 83.832C80.9556 82.84 81.4676 81.512 81.4676 79.848C81.4676 78.28 80.9556 77 79.9316 76.008C78.9076 74.984 77.3556 74.472 75.2756 74.472C73.1956 74.472 71.6756 74.968 70.7156 75.96C69.7556 76.952 69.2756 78.248 69.2756 79.848C69.2756 81.512 69.7556 82.84 70.7156 83.832C71.6756 84.824 73.1956 85.32 75.2756 85.32ZM115.707 66.792H124.923C124.763 72.04 124.683 79.496 124.683 89.16C124.683 92.968 123.915 96.088 122.379 98.52C120.875 100.952 118.875 102.712 116.379 103.8C113.883 104.92 111.099 105.48 108.027 105.48C104.987 105.48 102.267 105.032 99.8674 104.136C97.4674 103.272 95.6434 102.104 94.3954 100.632L96.5554 93.288C98.2834 94.28 99.9154 94.984 101.451 95.4C102.987 95.848 104.587 96.072 106.251 96.072C111.691 96.072 114.411 93.768 114.411 89.16C114.411 88.488 114.427 88.008 114.459 87.72C114.459 87.528 114.459 87.272 114.459 86.952C114.491 86.632 114.491 86.216 114.459 85.704C112.827 90.248 109.371 92.52 104.091 92.52C101.947 92.52 100.027 91.944 98.3314 90.792C96.6674 89.64 95.3714 88.088 94.4434 86.136C93.5154 84.152 93.0514 81.976 93.0514 79.608C93.0514 77.176 93.5154 74.952 94.4434 72.936C95.3714 70.888 96.6674 69.272 98.3314 68.088C99.9954 66.904 101.867 66.312 103.947 66.312C109.355 66.312 112.875 68.216 114.507 72.024L115.707 66.792ZM109.083 84.84C109.819 84.84 110.587 84.68 111.387 84.36C112.187 84.008 112.875 83.464 113.451 82.728C114.027 81.96 114.315 81.016 114.315 79.896C114.315 77.912 113.867 76.504 112.971 75.672C112.075 74.808 110.747 74.376 108.987 74.376C107.451 74.376 106.235 74.888 105.339 75.912C104.443 76.936 103.995 78.264 103.995 79.896C103.995 81.368 104.475 82.568 105.435 83.496C106.427 84.392 107.643 84.84 109.083 84.84ZM137.986 73.896C139.33 69.064 142.674 66.648 148.018 66.648C148.946 66.648 149.842 66.712 150.706 66.84L149.17 77.592C146.866 76.728 144.978 76.296 143.506 76.296C141.682 76.296 140.338 76.84 139.474 77.928C138.61 79.016 138.178 80.472 138.178 82.296V82.248L138.13 85.416C138.13 87.688 138.194 90.216 138.322 93H126.85C127.106 88.392 127.234 84.04 127.234 79.944C127.234 75.848 127.106 71.464 126.85 66.792C128.962 66.888 130.578 66.936 131.698 66.936C132.882 66.936 134.498 66.888 136.546 66.792L137.986 73.896ZM176.572 81H160.924C161.18 82.408 161.804 83.56 162.796 84.456C163.82 85.32 165.26 85.752 167.116 85.752C168.46 85.752 169.724 85.496 170.908 84.984C172.092 84.44 173.036 83.688 173.74 82.728C175.884 83.784 178.732 84.92 182.284 86.136C181.292 88.376 179.484 90.168 176.86 91.512C174.268 92.824 170.876 93.48 166.684 93.48C161.244 93.48 157.212 92.232 154.588 89.736C151.996 87.208 150.7 83.896 150.7 79.8C150.7 75.8 151.996 72.552 154.588 70.056C157.18 67.56 161.212 66.312 166.684 66.312C169.948 66.312 172.78 66.856 175.18 67.944C177.58 69.032 179.42 70.552 180.7 72.504C181.98 74.424 182.62 76.632 182.62 79.128C182.62 79.96 182.588 80.584 182.524 81H176.572ZM167.356 73.56C165.756 73.56 164.444 73.864 163.42 74.472C162.396 75.08 161.676 75.912 161.26 76.968H172.588C172.204 75.944 171.58 75.128 170.716 74.52C169.852 73.88 168.732 73.56 167.356 73.56ZM199.545 93.48C196.857 93.48 194.121 93.112 191.337 92.376C188.585 91.608 185.993 90.456 183.561 88.92L188.601 82.056C190.073 83.112 191.849 83.944 193.929 84.552C196.009 85.128 197.801 85.416 199.305 85.416C200.745 85.416 201.849 85.224 202.617 84.84C203.417 84.424 203.817 83.896 203.817 83.256C203.817 82.744 203.625 82.344 203.241 82.056C202.857 81.768 202.329 81.624 201.657 81.624C201.241 81.624 200.761 81.64 200.217 81.672C199.705 81.704 199.289 81.736 198.969 81.768C197.305 81.96 195.593 82.056 193.833 82.056C190.985 82.056 188.665 81.528 186.873 80.472C185.113 79.384 184.233 77.624 184.233 75.192C184.233 72.376 185.561 70.2 188.217 68.664C190.873 67.096 194.777 66.312 199.929 66.312C202.457 66.312 205.001 66.68 207.561 67.416C210.153 68.12 212.441 69.192 214.425 70.632L208.905 76.2C207.081 75.24 205.369 74.568 203.769 74.184C202.201 73.768 200.617 73.56 199.017 73.56C197.897 73.56 196.937 73.784 196.137 74.232C195.337 74.68 194.937 75.192 194.937 75.768C194.937 76.216 195.097 76.568 195.417 76.824C195.769 77.08 196.217 77.208 196.761 77.208C197.305 77.208 198.057 77.16 199.017 77.064C201.353 76.904 203.097 76.824 204.249 76.824C207.577 76.824 210.153 77.384 211.977 78.504C213.801 79.624 214.713 81.336 214.713 83.64C214.713 87.096 213.369 89.608 210.681 91.176C207.993 92.712 204.281 93.48 199.545 93.48ZM231.657 93.48C228.969 93.48 226.233 93.112 223.449 92.376C220.697 91.608 218.105 90.456 215.673 88.92L220.713 82.056C222.185 83.112 223.961 83.944 226.041 84.552C228.121 85.128 229.913 85.416 231.417 85.416C232.857 85.416 233.961 85.224 234.729 84.84C235.529 84.424 235.929 83.896 235.929 83.256C235.929 82.744 235.737 82.344 235.353 82.056C234.969 81.768 234.441 81.624 233.769 81.624C233.353 81.624 232.873 81.64 232.329 81.672C231.817 81.704 231.401 81.736 231.081 81.768C229.417 81.96 227.705 82.056 225.945 82.056C223.097 82.056 220.777 81.528 218.985 80.472C217.225 79.384 216.345 77.624 216.345 75.192C216.345 72.376 217.673 70.2 220.329 68.664C222.985 67.096 226.889 66.312 232.041 66.312C234.569 66.312 237.113 66.68 239.673 67.416C242.265 68.12 244.553 69.192 246.537 70.632L241.017 76.2C239.193 75.24 237.481 74.568 235.881 74.184C234.313 73.768 232.729 73.56 231.129 73.56C230.009 73.56 229.049 73.784 228.249 74.232C227.449 74.68 227.049 75.192 227.049 75.768C227.049 76.216 227.209 76.568 227.529 76.824C227.881 77.08 228.329 77.208 228.873 77.208C229.417 77.208 230.169 77.16 231.129 77.064C233.465 76.904 235.209 76.824 236.361 76.824C239.689 76.824 242.265 77.384 244.089 78.504C245.913 79.624 246.825 81.336 246.825 83.64C246.825 87.096 245.481 89.608 242.793 91.176C240.105 92.712 236.393 93.48 231.657 93.48ZM281.345 81H265.697C265.953 82.408 266.577 83.56 267.569 84.456C268.593 85.32 270.033 85.752 271.889 85.752C273.233 85.752 274.497 85.496 275.681 84.984C276.865 84.44 277.809 83.688 278.513 82.728C280.657 83.784 283.505 84.92 287.057 86.136C286.065 88.376 284.257 90.168 281.633 91.512C279.041 92.824 275.649 93.48 271.457 93.48C266.017 93.48 261.985 92.232 259.361 89.736C256.769 87.208 255.473 83.896 255.473 79.8C255.473 75.8 256.769 72.552 259.361 70.056C261.953 67.56 265.985 66.312 271.457 66.312C274.721 66.312 277.553 66.856 279.953 67.944C282.353 69.032 284.193 70.552 285.473 72.504C286.753 74.424 287.393 76.632 287.393 79.128C287.393 79.96 287.361 80.584 287.297 81H281.345ZM272.129 73.56C270.529 73.56 269.217 73.864 268.193 74.472C267.169 75.08 266.449 75.912 266.033 76.968H277.361C276.977 75.944 276.353 75.128 275.489 74.52C274.625 73.88 273.505 73.56 272.129 73.56ZM318.477 66.792C315.021 76.104 311.949 84.84 309.261 93H294.237C291.357 84.264 288.269 75.528 284.973 66.792H296.253L301.821 86.568L307.341 66.792H318.477ZM341.49 81H325.842C326.098 82.408 326.722 83.56 327.714 84.456C328.738 85.32 330.178 85.752 332.034 85.752C333.378 85.752 334.642 85.496 335.826 84.984C337.01 84.44 337.954 83.688 338.658 82.728C340.802 83.784 343.65 84.92 347.202 86.136C346.21 88.376 344.402 90.168 341.778 91.512C339.186 92.824 335.794 93.48 331.602 93.48C326.162 93.48 322.13 92.232 319.506 89.736C316.914 87.208 315.618 83.896 315.618 79.8C315.618 75.8 316.914 72.552 319.506 70.056C322.098 67.56 326.13 66.312 331.602 66.312C334.866 66.312 337.698 66.856 340.098 67.944C342.498 69.032 344.338 70.552 345.618 72.504C346.898 74.424 347.538 76.632 347.538 79.128C347.538 79.96 347.506 80.584 347.442 81H341.49ZM332.274 73.56C330.674 73.56 329.362 73.864 328.338 74.472C327.314 75.08 326.594 75.912 326.178 76.968H337.506C337.122 75.944 336.498 75.128 335.634 74.52C334.77 73.88 333.65 73.56 332.274 73.56ZM360.095 73.896C361.439 69.064 364.783 66.648 370.127 66.648C371.055 66.648 371.951 66.712 372.815 66.84L371.279 77.592C368.975 76.728 367.087 76.296 365.615 76.296C363.791 76.296 362.447 76.84 361.583 77.928C360.719 79.016 360.287 80.472 360.287 82.296V82.248L360.239 85.416C360.239 87.688 360.303 90.216 360.431 93H348.959C349.215 88.392 349.343 84.04 349.343 79.944C349.343 75.848 349.215 71.464 348.959 66.792C351.071 66.888 352.687 66.936 353.807 66.936C354.991 66.936 356.607 66.888 358.655 66.792L360.095 73.896ZM402.388 66.792L401.284 69.576C398.244 77.672 395.06 85.48 391.732 93C390.004 96.84 387.508 99.912 384.244 102.216C380.98 104.552 376.884 105.672 371.956 105.576C371.348 102.92 370.836 100.84 370.42 99.336C370.036 97.864 369.524 96.376 368.884 94.872C370.644 95.288 372.292 95.496 373.828 95.496C376.324 95.496 378.308 94.968 379.78 93.912C378.628 90.488 377.268 86.808 375.7 82.872C374.132 78.936 371.86 73.576 368.884 66.792H380.26C380.644 68.392 381.172 70.248 381.844 72.36C382.516 74.472 383.188 76.504 383.86 78.456C384.052 79.064 384.356 79.992 384.772 81.24C385.22 82.456 385.572 83.48 385.828 84.312L387.076 80.52C389.476 73.576 390.9 69 391.348 66.792H402.388ZM33.3596 103.656C33.1676 109.608 33.0716 115.832 33.0716 122.328C33.0716 128.76 33.1676 134.984 33.3596 141H22.5116L22.6556 135.24C21.7276 137.384 20.3836 138.968 18.6236 139.992C16.8636 140.984 14.7836 141.48 12.3836 141.48C10.3036 141.48 8.43161 140.888 6.76761 139.704C5.10361 138.52 3.80761 136.92 2.87961 134.904C1.95161 132.856 1.48761 130.616 1.48761 128.184C1.48761 125.784 1.95161 123.528 2.87961 121.416C3.80761 119.272 5.10361 117.56 6.76761 116.28C8.46361 114.968 10.3836 114.312 12.5276 114.312C15.0236 114.312 17.1516 114.84 18.9116 115.896C20.7036 116.92 22.0316 118.52 22.8956 120.696C22.8956 118.872 22.8316 115.944 22.7036 111.912C22.5756 108.008 22.5116 105.256 22.5116 103.656H33.3596ZM17.4236 133.416C18.9916 133.416 20.2716 132.984 21.2636 132.12C22.2556 131.224 22.7516 129.816 22.7516 127.896C22.7516 126.2 22.2556 124.952 21.2636 124.152C20.2716 123.352 19.0236 122.952 17.5196 122.952C16.0796 122.952 14.8636 123.416 13.8716 124.344C12.9116 125.24 12.4316 126.424 12.4316 127.896C12.4316 129.528 12.8796 130.856 13.7756 131.88C14.6716 132.904 15.8876 133.416 17.4236 133.416ZM66.0656 133.032C66.0656 134.12 66.1936 134.888 66.4496 135.336C66.7056 135.784 67.2176 136.104 67.9856 136.296L67.7936 140.808C66.7696 140.968 65.8736 141.08 65.1056 141.144C64.3696 141.208 63.3776 141.24 62.1296 141.24C59.3776 141.24 57.5536 140.632 56.6576 139.416C55.7616 138.168 55.3136 136.584 55.3136 134.664V133.464C54.3856 136.088 53.0256 138.04 51.2336 139.32C49.4736 140.6 47.2176 141.24 44.4656 141.24C41.2656 141.24 38.8496 140.6 37.2176 139.32C35.6176 138.04 34.8176 136.136 34.8176 133.608C34.8176 131.528 35.5056 129.896 36.8816 128.712C38.2576 127.528 40.3856 126.712 43.2656 126.264C40.8336 124.536 38.4016 123.032 35.9696 121.752C37.8896 119.32 40.0816 117.48 42.5456 116.232C45.0096 114.952 48.0016 114.312 51.5216 114.312C56.4496 114.312 60.0976 115.384 62.4656 117.528C64.8656 119.64 66.0656 122.904 66.0656 127.32V133.032ZM52.5296 122.76C50.8976 122.76 49.4576 123.032 48.2096 123.576C46.9616 124.12 45.8416 124.936 44.8496 126.024C46.7696 125.8 49.1696 125.688 52.0496 125.688C53.2336 125.688 54.0656 125.544 54.5456 125.256C55.0256 124.968 55.2656 124.6 55.2656 124.152C55.2656 123.768 55.0256 123.448 54.5456 123.192C54.0656 122.904 53.3936 122.76 52.5296 122.76ZM47.4896 133.416C49.2816 133.416 50.8976 133.08 52.3376 132.408C53.7776 131.704 54.7696 130.792 55.3136 129.672V128.424C54.5456 128.808 53.6976 129.112 52.7696 129.336C51.8416 129.528 50.7216 129.72 49.4096 129.912L47.6816 130.2C45.8896 130.552 44.9936 131.16 44.9936 132.024C44.9936 132.952 45.8256 133.416 47.4896 133.416ZM100.54 114.792L99.4357 117.576C96.3957 125.672 93.2117 133.48 89.8837 141C88.1557 144.84 85.6597 147.912 82.3957 150.216C79.1317 152.552 75.0357 153.672 70.1077 153.576C69.4997 150.92 68.9877 148.84 68.5717 147.336C68.1877 145.864 67.6757 144.376 67.0357 142.872C68.7957 143.288 70.4437 143.496 71.9797 143.496C74.4757 143.496 76.4597 142.968 77.9317 141.912C76.7797 138.488 75.4197 134.808 73.8517 130.872C72.2837 126.936 70.0117 121.576 67.0357 114.792H78.4117C78.7957 116.392 79.3237 118.248 79.9957 120.36C80.6677 122.472 81.3397 124.504 82.0117 126.456C82.2037 127.064 82.5077 127.992 82.9237 129.24C83.3717 130.456 83.7237 131.48 83.9797 132.312L85.2277 128.52C87.6277 121.576 89.0517 117 89.4997 114.792H100.54Z" fill="black"/>
<path d="M5.64561 193.18C4.66161 193.18 3.71961 193.042 2.81961 192.766C1.91961 192.478 1.20561 192.112 0.677607 191.668L1.48761 189.85C1.99161 190.246 2.61561 190.576 3.35961 190.84C4.10361 191.104 4.86561 191.236 5.64561 191.236C6.30561 191.236 6.83961 191.164 7.24761 191.02C7.65561 190.876 7.95561 190.684 8.14761 190.444C8.33961 190.192 8.43561 189.91 8.43561 189.598C8.43561 189.214 8.29761 188.908 8.02161 188.68C7.74561 188.44 7.38561 188.254 6.94161 188.122C6.50961 187.978 6.02361 187.846 5.48361 187.726C4.95561 187.606 4.42161 187.468 3.88161 187.312C3.35361 187.144 2.86761 186.934 2.42361 186.682C1.99161 186.418 1.63761 186.07 1.36161 185.638C1.08561 185.206 0.947607 184.654 0.947607 183.982C0.947607 183.298 1.12761 182.674 1.48761 182.11C1.85961 181.534 2.41761 181.078 3.16161 180.742C3.91761 180.394 4.87161 180.22 6.02361 180.22C6.77961 180.22 7.52961 180.316 8.27361 180.508C9.01761 180.7 9.66561 180.976 10.2176 181.336L9.47961 183.154C8.91561 182.818 8.33361 182.572 7.73361 182.416C7.13361 182.248 6.55761 182.164 6.00561 182.164C5.35761 182.164 4.82961 182.242 4.42161 182.398C4.02561 182.554 3.73161 182.758 3.53961 183.01C3.35961 183.262 3.26961 183.55 3.26961 183.874C3.26961 184.258 3.40161 184.57 3.66561 184.81C3.94161 185.038 4.29561 185.218 4.72761 185.35C5.17161 185.482 5.66361 185.614 6.20361 185.746C6.74361 185.866 7.27761 186.004 7.80561 186.16C8.34561 186.316 8.83161 186.52 9.26361 186.772C9.70761 187.024 10.0616 187.366 10.3256 187.798C10.6016 188.23 10.7396 188.776 10.7396 189.436C10.7396 190.108 10.5536 190.732 10.1816 191.308C9.82161 191.872 9.26361 192.328 8.50761 192.676C7.75161 193.012 6.79761 193.18 5.64561 193.18ZM18.0459 193V191.056L17.9199 190.642V187.24C17.9199 186.58 17.7219 186.07 17.3259 185.71C16.9299 185.338 16.3299 185.152 15.5259 185.152C14.9859 185.152 14.4519 185.236 13.9239 185.404C13.4079 185.572 12.9699 185.806 12.6099 186.106L11.7279 184.468C12.2439 184.072 12.8559 183.778 13.5639 183.586C14.2839 183.382 15.0279 183.28 15.7959 183.28C17.1879 183.28 18.2619 183.616 19.0179 184.288C19.7859 184.948 20.1699 185.974 20.1699 187.366V193H18.0459ZM15.0219 193.126C14.3019 193.126 13.6719 193.006 13.1319 192.766C12.5919 192.514 12.1719 192.172 11.8719 191.74C11.5839 191.296 11.4399 190.798 11.4399 190.246C11.4399 189.706 11.5659 189.22 11.8179 188.788C12.0819 188.356 12.5079 188.014 13.0959 187.762C13.6839 187.51 14.4639 187.384 15.4359 187.384H18.2259V188.878H15.5979C14.8299 188.878 14.3139 189.004 14.0499 189.256C13.7859 189.496 13.6539 189.796 13.6539 190.156C13.6539 190.564 13.8159 190.888 14.1399 191.128C14.4639 191.368 14.9139 191.488 15.4899 191.488C16.0419 191.488 16.5339 191.362 16.9659 191.11C17.4099 190.858 17.7279 190.486 17.9199 189.994L18.2979 191.344C18.0819 191.908 17.6919 192.346 17.1279 192.658C16.5759 192.97 15.8739 193.126 15.0219 193.126ZM24.7177 193L20.5957 183.388H22.9357L26.4817 191.866H25.3297L29.0017 183.388H31.1617L27.0397 193H24.7177ZM36.1023 193.126C35.0343 193.126 34.0983 192.916 33.2943 192.496C32.5023 192.064 31.8843 191.476 31.4403 190.732C31.0083 189.988 30.7923 189.142 30.7923 188.194C30.7923 187.234 31.0023 186.388 31.4223 185.656C31.8543 184.912 32.4423 184.33 33.1863 183.91C33.9423 183.49 34.8003 183.28 35.7603 183.28C36.6963 183.28 37.5303 183.484 38.2623 183.892C38.9943 184.3 39.5703 184.876 39.9903 185.62C40.4103 186.364 40.6203 187.24 40.6203 188.248C40.6203 188.344 40.6143 188.452 40.6023 188.572C40.6023 188.692 40.5963 188.806 40.5843 188.914H32.5743V187.42H39.3963L38.5143 187.888C38.5263 187.336 38.4123 186.85 38.1723 186.43C37.9323 186.01 37.6023 185.68 37.1823 185.44C36.7743 185.2 36.3003 185.08 35.7603 185.08C35.2083 185.08 34.7223 185.2 34.3023 185.44C33.8943 185.68 33.5703 186.016 33.3303 186.448C33.1023 186.868 32.9883 187.366 32.9883 187.942V188.302C32.9883 188.878 33.1203 189.388 33.3843 189.832C33.6483 190.276 34.0203 190.618 34.5003 190.858C34.9803 191.098 35.5323 191.218 36.1563 191.218C36.6963 191.218 37.1823 191.134 37.6143 190.966C38.0463 190.798 38.4303 190.534 38.7663 190.174L39.9723 191.56C39.5403 192.064 38.9943 192.454 38.3343 192.73C37.6863 192.994 36.9423 193.126 36.1023 193.126ZM49.2862 193.126C48.4822 193.126 47.7082 193.024 46.9642 192.82C46.2322 192.604 45.6502 192.346 45.2182 192.046L46.0822 190.336C46.5142 190.612 47.0302 190.84 47.6302 191.02C48.2302 191.2 48.8302 191.29 49.4302 191.29C50.1382 191.29 50.6482 191.194 50.9602 191.002C51.2842 190.81 51.4462 190.552 51.4462 190.228C51.4462 189.964 51.3382 189.766 51.1222 189.634C50.9062 189.49 50.6242 189.382 50.2762 189.31C49.9282 189.238 49.5382 189.172 49.1062 189.112C48.6862 189.052 48.2602 188.974 47.8282 188.878C47.4082 188.77 47.0242 188.62 46.6762 188.428C46.3282 188.224 46.0462 187.954 45.8302 187.618C45.6142 187.282 45.5062 186.838 45.5062 186.286C45.5062 185.674 45.6802 185.146 46.0282 184.702C46.3762 184.246 46.8622 183.898 47.4862 183.658C48.1222 183.406 48.8722 183.28 49.7362 183.28C50.3842 183.28 51.0382 183.352 51.6982 183.496C52.3582 183.64 52.9042 183.844 53.3362 184.108L52.4722 185.818C52.0162 185.542 51.5542 185.356 51.0862 185.26C50.6302 185.152 50.1742 185.098 49.7182 185.098C49.0342 185.098 48.5242 185.2 48.1882 185.404C47.8642 185.608 47.7022 185.866 47.7022 186.178C47.7022 186.466 47.8102 186.682 48.0262 186.826C48.2422 186.97 48.5242 187.084 48.8722 187.168C49.2202 187.252 49.6042 187.324 50.0242 187.384C50.4562 187.432 50.8822 187.51 51.3022 187.618C51.7222 187.726 52.1062 187.876 52.4542 188.068C52.8142 188.248 53.1022 188.506 53.3182 188.842C53.5342 189.178 53.6422 189.616 53.6422 190.156C53.6422 190.756 53.4622 191.278 53.1022 191.722C52.7542 192.166 52.2562 192.514 51.6082 192.766C50.9602 193.006 50.1862 193.126 49.2862 193.126ZM58.4779 193.126C57.4219 193.126 56.6059 192.856 56.0299 192.316C55.4539 191.764 55.1659 190.954 55.1659 189.886V181.264H57.4159V189.832C57.4159 190.288 57.5299 190.642 57.7579 190.894C57.9979 191.146 58.3279 191.272 58.7479 191.272C59.2519 191.272 59.6719 191.14 60.0079 190.876L60.6379 192.478C60.3739 192.694 60.0499 192.856 59.6659 192.964C59.2819 193.072 58.8859 193.126 58.4779 193.126ZM53.5819 185.26V183.46H59.9899V185.26H53.5819ZM67.6908 193V191.056L67.5648 190.642V187.24C67.5648 186.58 67.3668 186.07 66.9708 185.71C66.5748 185.338 65.9748 185.152 65.1708 185.152C64.6308 185.152 64.0968 185.236 63.5688 185.404C63.0528 185.572 62.6148 185.806 62.2548 186.106L61.3728 184.468C61.8888 184.072 62.5008 183.778 63.2088 183.586C63.9288 183.382 64.6728 183.28 65.4408 183.28C66.8328 183.28 67.9068 183.616 68.6628 184.288C69.4308 184.948 69.8148 185.974 69.8148 187.366V193H67.6908ZM64.6668 193.126C63.9468 193.126 63.3168 193.006 62.7768 192.766C62.2368 192.514 61.8168 192.172 61.5168 191.74C61.2288 191.296 61.0848 190.798 61.0848 190.246C61.0848 189.706 61.2108 189.22 61.4628 188.788C61.7268 188.356 62.1528 188.014 62.7408 187.762C63.3288 187.51 64.1088 187.384 65.0808 187.384H67.8708V188.878H65.2428C64.4748 188.878 63.9588 189.004 63.6948 189.256C63.4308 189.496 63.2988 189.796 63.2988 190.156C63.2988 190.564 63.4608 190.888 63.7848 191.128C64.1088 191.368 64.5588 191.488 65.1348 191.488C65.6868 191.488 66.1788 191.362 66.6108 191.11C67.0548 190.858 67.3728 190.486 67.5648 189.994L67.9428 191.344C67.7268 191.908 67.3368 192.346 66.7728 192.658C66.2208 192.97 65.5188 193.126 64.6668 193.126ZM75.6004 193.126C74.5444 193.126 73.7284 192.856 73.1524 192.316C72.5764 191.764 72.2884 190.954 72.2884 189.886V181.264H74.5384V189.832C74.5384 190.288 74.6524 190.642 74.8804 190.894C75.1204 191.146 75.4504 191.272 75.8704 191.272C76.3744 191.272 76.7944 191.14 77.1304 190.876L77.7604 192.478C77.4964 192.694 77.1724 192.856 76.7884 192.964C76.4044 193.072 76.0084 193.126 75.6004 193.126ZM70.7044 185.26V183.46H77.1124V185.26H70.7044ZM78.8913 193V183.388H81.1413V193H78.8913ZM80.0253 181.804C79.6053 181.804 79.2573 181.672 78.9813 181.408C78.7173 181.144 78.5853 180.826 78.5853 180.454C78.5853 180.07 78.7173 179.752 78.9813 179.5C79.2573 179.236 79.6053 179.104 80.0253 179.104C80.4453 179.104 80.7873 179.23 81.0513 179.482C81.3273 179.722 81.4653 180.028 81.4653 180.4C81.4653 180.796 81.3333 181.132 81.0693 181.408C80.8053 181.672 80.4573 181.804 80.0253 181.804ZM86.3444 193.126C85.5404 193.126 84.7664 193.024 84.0224 192.82C83.2904 192.604 82.7084 192.346 82.2764 192.046L83.1404 190.336C83.5724 190.612 84.0884 190.84 84.6884 191.02C85.2884 191.2 85.8884 191.29 86.4884 191.29C87.1964 191.29 87.7064 191.194 88.0184 191.002C88.3424 190.81 88.5044 190.552 88.5044 190.228C88.5044 189.964 88.3964 189.766 88.1804 189.634C87.9644 189.49 87.6824 189.382 87.3344 189.31C86.9864 189.238 86.5964 189.172 86.1644 189.112C85.7444 189.052 85.3184 188.974 84.8864 188.878C84.4664 188.77 84.0824 188.62 83.7344 188.428C83.3864 188.224 83.1044 187.954 82.8884 187.618C82.6724 187.282 82.5644 186.838 82.5644 186.286C82.5644 185.674 82.7384 185.146 83.0864 184.702C83.4344 184.246 83.9204 183.898 84.5444 183.658C85.1804 183.406 85.9304 183.28 86.7944 183.28C87.4424 183.28 88.0964 183.352 88.7564 183.496C89.4164 183.64 89.9624 183.844 90.3944 184.108L89.5304 185.818C89.0744 185.542 88.6124 185.356 88.1444 185.26C87.6884 185.152 87.2324 185.098 86.7764 185.098C86.0924 185.098 85.5824 185.2 85.2464 185.404C84.9224 185.608 84.7604 185.866 84.7604 186.178C84.7604 186.466 84.8684 186.682 85.0844 186.826C85.3004 186.97 85.5824 187.084 85.9304 187.168C86.2784 187.252 86.6624 187.324 87.0824 187.384C87.5144 187.432 87.9404 187.51 88.3604 187.618C88.7804 187.726 89.1644 187.876 89.5124 188.068C89.8724 188.248 90.1604 188.506 90.3764 188.842C90.5924 189.178 90.7004 189.616 90.7004 190.156C90.7004 190.756 90.5204 191.278 90.1604 191.722C89.8124 192.166 89.3144 192.514 88.6664 192.766C88.0184 193.006 87.2444 193.126 86.3444 193.126ZM95.5361 193.126C94.4801 193.126 93.6641 192.856 93.0881 192.316C92.5121 191.764 92.2241 190.954 92.2241 189.886V181.264H94.4741V189.832C94.4741 190.288 94.5881 190.642 94.8161 190.894C95.0561 191.146 95.3861 191.272 95.8061 191.272C96.3101 191.272 96.7301 191.14 97.0661 190.876L97.6961 192.478C97.4321 192.694 97.1081 192.856 96.7241 192.964C96.3401 193.072 95.9441 193.126 95.5361 193.126ZM90.6401 185.26V183.46H97.0481V185.26H90.6401ZM98.827 193V183.388H101.077V193H98.827ZM99.961 181.804C99.541 181.804 99.193 181.672 98.917 181.408C98.653 181.144 98.521 180.826 98.521 180.454C98.521 180.07 98.653 179.752 98.917 179.5C99.193 179.236 99.541 179.104 99.961 179.104C100.381 179.104 100.723 179.23 100.987 179.482C101.263 179.722 101.401 180.028 101.401 180.4C101.401 180.796 101.269 181.132 101.005 181.408C100.741 181.672 100.393 181.804 99.961 181.804ZM107.72 193.126C106.712 193.126 105.812 192.916 105.02 192.496C104.24 192.064 103.628 191.476 103.184 190.732C102.74 189.988 102.518 189.142 102.518 188.194C102.518 187.234 102.74 186.388 103.184 185.656C103.628 184.912 104.24 184.33 105.02 183.91C105.812 183.49 106.712 183.28 107.72 183.28C108.656 183.28 109.478 183.472 110.186 183.856C110.906 184.228 111.452 184.78 111.824 185.512L110.096 186.52C109.808 186.064 109.454 185.728 109.034 185.512C108.626 185.296 108.182 185.188 107.702 185.188C107.15 185.188 106.652 185.308 106.208 185.548C105.764 185.788 105.416 186.136 105.164 186.592C104.912 187.036 104.786 187.57 104.786 188.194C104.786 188.818 104.912 189.358 105.164 189.814C105.416 190.258 105.764 190.6 106.208 190.84C106.652 191.08 107.15 191.2 107.702 191.2C108.182 191.2 108.626 191.092 109.034 190.876C109.454 190.66 109.808 190.324 110.096 189.868L111.824 190.876C111.452 191.596 110.906 192.154 110.186 192.55C109.478 192.934 108.656 193.126 107.72 193.126ZM116.019 193.126C115.215 193.126 114.441 193.024 113.697 192.82C112.965 192.604 112.383 192.346 111.951 192.046L112.815 190.336C113.247 190.612 113.763 190.84 114.363 191.02C114.963 191.2 115.563 191.29 116.163 191.29C116.871 191.29 117.381 191.194 117.693 191.002C118.017 190.81 118.179 190.552 118.179 190.228C118.179 189.964 118.071 189.766 117.855 189.634C117.639 189.49 117.357 189.382 117.009 189.31C116.661 189.238 116.271 189.172 115.839 189.112C115.419 189.052 114.993 188.974 114.561 188.878C114.141 188.77 113.757 188.62 113.409 188.428C113.061 188.224 112.779 187.954 112.563 187.618C112.347 187.282 112.239 186.838 112.239 186.286C112.239 185.674 112.413 185.146 112.761 184.702C113.109 184.246 113.595 183.898 114.219 183.658C114.855 183.406 115.605 183.28 116.469 183.28C117.117 183.28 117.771 183.352 118.431 183.496C119.091 183.64 119.637 183.844 120.069 184.108L119.205 185.818C118.749 185.542 118.287 185.356 117.819 185.26C117.363 185.152 116.907 185.098 116.451 185.098C115.767 185.098 115.257 185.2 114.921 185.404C114.597 185.608 114.435 185.866 114.435 186.178C114.435 186.466 114.543 186.682 114.759 186.826C114.975 186.97 115.257 187.084 115.605 187.168C115.953 187.252 116.337 187.324 116.757 187.384C117.189 187.432 117.615 187.51 118.035 187.618C118.455 187.726 118.839 187.876 119.187 188.068C119.547 188.248 119.835 188.506 120.051 188.842C120.267 189.178 120.375 189.616 120.375 190.156C120.375 190.756 120.195 191.278 119.835 191.722C119.487 192.166 118.989 192.514 118.341 192.766C117.693 193.006 116.919 193.126 116.019 193.126ZM130.167 193.126C129.183 193.126 128.307 192.916 127.539 192.496C126.771 192.064 126.165 191.476 125.721 190.732C125.277 189.988 125.055 189.142 125.055 188.194C125.055 187.234 125.277 186.388 125.721 185.656C126.165 184.912 126.771 184.33 127.539 183.91C128.307 183.49 129.183 183.28 130.167 183.28C131.163 183.28 132.045 183.49 132.813 183.91C133.593 184.33 134.199 184.906 134.631 185.638C135.075 186.37 135.297 187.222 135.297 188.194C135.297 189.142 135.075 189.988 134.631 190.732C134.199 191.476 133.593 192.064 132.813 192.496C132.045 192.916 131.163 193.126 130.167 193.126ZM130.167 191.2C130.719 191.2 131.211 191.08 131.643 190.84C132.075 190.6 132.411 190.252 132.651 189.796C132.903 189.34 133.029 188.806 133.029 188.194C133.029 187.57 132.903 187.036 132.651 186.592C132.411 186.136 132.075 185.788 131.643 185.548C131.211 185.308 130.725 185.188 130.185 185.188C129.633 185.188 129.141 185.308 128.709 185.548C128.289 185.788 127.953 186.136 127.701 186.592C127.449 187.036 127.323 187.57 127.323 188.194C127.323 188.806 127.449 189.34 127.701 189.796C127.953 190.252 128.289 190.6 128.709 190.84C129.141 191.08 129.627 191.2 130.167 191.2ZM142.183 183.28C142.951 183.28 143.635 183.43 144.235 183.73C144.847 184.03 145.327 184.492 145.675 185.116C146.023 185.728 146.197 186.52 146.197 187.492V193H143.947V187.78C143.947 186.928 143.743 186.292 143.335 185.872C142.939 185.452 142.381 185.242 141.661 185.242C141.133 185.242 140.665 185.35 140.257 185.566C139.849 185.782 139.531 186.106 139.303 186.538C139.087 186.958 138.979 187.492 138.979 188.14V193H136.729V183.388H138.871V185.98L138.493 185.188C138.829 184.576 139.315 184.108 139.951 183.784C140.599 183.448 141.343 183.28 142.183 183.28ZM153.378 196.618C152.91 196.618 152.442 196.54 151.974 196.384C151.506 196.228 151.116 196.012 150.804 195.736L151.704 194.08C151.932 194.284 152.19 194.446 152.478 194.566C152.766 194.686 153.06 194.746 153.36 194.746C153.768 194.746 154.098 194.644 154.35 194.44C154.602 194.236 154.836 193.894 155.052 193.414L155.61 192.154L155.79 191.884L159.426 183.388H161.586L157.086 193.774C156.786 194.494 156.45 195.064 156.078 195.484C155.718 195.904 155.31 196.198 154.854 196.366C154.41 196.534 153.918 196.618 153.378 196.618ZM155.358 193.342L151.02 183.388H153.36L156.888 191.686L155.358 193.342ZM166.328 193.126C165.344 193.126 164.468 192.916 163.7 192.496C162.932 192.064 162.326 191.476 161.882 190.732C161.438 189.988 161.216 189.142 161.216 188.194C161.216 187.234 161.438 186.388 161.882 185.656C162.326 184.912 162.932 184.33 163.7 183.91C164.468 183.49 165.344 183.28 166.328 183.28C167.324 183.28 168.206 183.49 168.974 183.91C169.754 184.33 170.36 184.906 170.792 185.638C171.236 186.37 171.458 187.222 171.458 188.194C171.458 189.142 171.236 189.988 170.792 190.732C170.36 191.476 169.754 192.064 168.974 192.496C168.206 192.916 167.324 193.126 166.328 193.126ZM166.328 191.2C166.88 191.2 167.372 191.08 167.804 190.84C168.236 190.6 168.572 190.252 168.812 189.796C169.064 189.34 169.19 188.806 169.19 188.194C169.19 187.57 169.064 187.036 168.812 186.592C168.572 186.136 168.236 185.788 167.804 185.548C167.372 185.308 166.886 185.188 166.346 185.188C165.794 185.188 165.302 185.308 164.87 185.548C164.45 185.788 164.114 186.136 163.862 186.592C163.61 187.036 163.484 187.57 163.484 188.194C163.484 188.806 163.61 189.34 163.862 189.796C164.114 190.252 164.45 190.6 164.87 190.84C165.302 191.08 165.788 191.2 166.328 191.2ZM176.958 193.126C176.142 193.126 175.422 192.976 174.798 192.676C174.174 192.364 173.688 191.896 173.34 191.272C172.992 190.636 172.818 189.838 172.818 188.878V183.388H175.068V188.572C175.068 189.436 175.26 190.084 175.644 190.516C176.04 190.936 176.598 191.146 177.318 191.146C177.846 191.146 178.302 191.038 178.686 190.822C179.082 190.606 179.388 190.282 179.604 189.85C179.832 189.418 179.946 188.884 179.946 188.248V183.388H182.196V193H180.054V190.408L180.432 191.2C180.108 191.824 179.634 192.304 179.01 192.64C178.386 192.964 177.702 193.126 176.958 193.126ZM184.422 193V183.388H186.564V186.034L186.312 185.26C186.6 184.612 187.05 184.12 187.662 183.784C188.286 183.448 189.06 183.28 189.984 183.28V185.422C189.888 185.398 189.798 185.386 189.714 185.386C189.63 185.374 189.546 185.368 189.462 185.368C188.61 185.368 187.932 185.62 187.428 186.124C186.924 186.616 186.672 187.354 186.672 188.338V193H184.422ZM201.437 193V191.056L201.311 190.642V187.24C201.311 186.58 201.113 186.07 200.717 185.71C200.321 185.338 199.721 185.152 198.917 185.152C198.377 185.152 197.843 185.236 197.315 185.404C196.799 185.572 196.361 185.806 196.001 186.106L195.119 184.468C195.635 184.072 196.247 183.778 196.955 183.586C197.675 183.382 198.419 183.28 199.187 183.28C200.579 183.28 201.653 183.616 202.409 184.288C203.177 184.948 203.561 185.974 203.561 187.366V193H201.437ZM198.413 193.126C197.693 193.126 197.063 193.006 196.523 192.766C195.983 192.514 195.563 192.172 195.263 191.74C194.975 191.296 194.831 190.798 194.831 190.246C194.831 189.706 194.957 189.22 195.209 188.788C195.473 188.356 195.899 188.014 196.487 187.762C197.075 187.51 197.855 187.384 198.827 187.384H201.617V188.878H198.989C198.221 188.878 197.705 189.004 197.441 189.256C197.177 189.496 197.045 189.796 197.045 190.156C197.045 190.564 197.207 190.888 197.531 191.128C197.855 191.368 198.305 191.488 198.881 191.488C199.433 191.488 199.925 191.362 200.357 191.11C200.801 190.858 201.119 190.486 201.311 189.994L201.689 191.344C201.473 191.908 201.083 192.346 200.519 192.658C199.967 192.97 199.265 193.126 198.413 193.126ZM210.156 193.126C209.148 193.126 208.248 192.916 207.456 192.496C206.676 192.064 206.064 191.476 205.62 190.732C205.176 189.988 204.954 189.142 204.954 188.194C204.954 187.234 205.176 186.388 205.62 185.656C206.064 184.912 206.676 184.33 207.456 183.91C208.248 183.49 209.148 183.28 210.156 183.28C211.092 183.28 211.914 183.472 212.622 183.856C213.342 184.228 213.888 184.78 214.26 185.512L212.532 186.52C212.244 186.064 211.89 185.728 211.47 185.512C211.062 185.296 210.618 185.188 210.138 185.188C209.586 185.188 209.088 185.308 208.644 185.548C208.2 185.788 207.852 186.136 207.6 186.592C207.348 187.036 207.222 187.57 207.222 188.194C207.222 188.818 207.348 189.358 207.6 189.814C207.852 190.258 208.2 190.6 208.644 190.84C209.088 191.08 209.586 191.2 210.138 191.2C210.618 191.2 211.062 191.092 211.47 190.876C211.89 190.66 212.244 190.324 212.532 189.868L214.26 190.876C213.888 191.596 213.342 192.154 212.622 192.55C211.914 192.934 211.092 193.126 210.156 193.126ZM220.851 183.28C221.619 183.28 222.303 183.43 222.903 183.73C223.515 184.03 223.995 184.492 224.343 185.116C224.691 185.728 224.865 186.52 224.865 187.492V193H222.615V187.78C222.615 186.928 222.411 186.292 222.003 185.872C221.607 185.452 221.049 185.242 220.329 185.242C219.801 185.242 219.333 185.35 218.925 185.566C218.517 185.782 218.199 186.106 217.971 186.538C217.755 186.958 217.647 187.492 217.647 188.14V193H215.397V179.644H217.647V185.98L217.161 185.188C217.497 184.576 217.983 184.108 218.619 183.784C219.267 183.448 220.011 183.28 220.851 183.28ZM227 193V183.388H229.25V193H227ZM228.134 181.804C227.714 181.804 227.366 181.672 227.09 181.408C226.826 181.144 226.694 180.826 226.694 180.454C226.694 180.07 226.826 179.752 227.09 179.5C227.366 179.236 227.714 179.104 228.134 179.104C228.554 179.104 228.896 179.23 229.16 179.482C229.436 179.722 229.574 180.028 229.574 180.4C229.574 180.796 229.442 181.132 229.178 181.408C228.914 181.672 228.566 181.804 228.134 181.804ZM236.001 193.126C234.933 193.126 233.997 192.916 233.193 192.496C232.401 192.064 231.783 191.476 231.339 190.732C230.907 189.988 230.691 189.142 230.691 188.194C230.691 187.234 230.901 186.388 231.321 185.656C231.753 184.912 232.341 184.33 233.085 183.91C233.841 183.49 234.699 183.28 235.659 183.28C236.595 183.28 237.429 183.484 238.161 183.892C238.893 184.3 239.469 184.876 239.889 185.62C240.309 186.364 240.519 187.24 240.519 188.248C240.519 188.344 240.513 188.452 240.501 188.572C240.501 188.692 240.495 188.806 240.483 188.914H232.473V187.42H239.295L238.413 187.888C238.425 187.336 238.311 186.85 238.071 186.43C237.831 186.01 237.501 185.68 237.081 185.44C236.673 185.2 236.199 185.08 235.659 185.08C235.107 185.08 234.621 185.2 234.201 185.44C233.793 185.68 233.469 186.016 233.229 186.448C233.001 186.868 232.887 187.366 232.887 187.942V188.302C232.887 188.878 233.019 189.388 233.283 189.832C233.547 190.276 233.919 190.618 234.399 190.858C234.879 191.098 235.431 191.218 236.055 191.218C236.595 191.218 237.081 191.134 237.513 190.966C237.945 190.798 238.329 190.534 238.665 190.174L239.871 191.56C239.439 192.064 238.893 192.454 238.233 192.73C237.585 192.994 236.841 193.126 236.001 193.126ZM244.34 193L240.218 183.388H242.558L246.104 191.866H244.952L248.624 183.388H250.784L246.662 193H244.34ZM255.725 193.126C254.657 193.126 253.721 192.916 252.917 192.496C252.125 192.064 251.507 191.476 251.063 190.732C250.631 189.988 250.415 189.142 250.415 188.194C250.415 187.234 250.625 186.388 251.045 185.656C251.477 184.912 252.065 184.33 252.809 183.91C253.565 183.49 254.423 183.28 255.383 183.28C256.319 183.28 257.153 183.484 257.885 183.892C258.617 184.3 259.193 184.876 259.613 185.62C260.033 186.364 260.243 187.24 260.243 188.248C260.243 188.344 260.237 188.452 260.225 188.572C260.225 188.692 260.219 188.806 260.207 188.914H252.197V187.42H259.019L258.137 187.888C258.149 187.336 258.035 186.85 257.795 186.43C257.555 186.01 257.225 185.68 256.805 185.44C256.397 185.2 255.923 185.08 255.383 185.08C254.831 185.08 254.345 185.2 253.925 185.44C253.517 185.68 253.193 186.016 252.953 186.448C252.725 186.868 252.611 187.366 252.611 187.942V188.302C252.611 188.878 252.743 189.388 253.007 189.832C253.271 190.276 253.643 190.618 254.123 190.858C254.603 191.098 255.155 191.218 255.779 191.218C256.319 191.218 256.805 191.134 257.237 190.966C257.669 190.798 258.053 190.534 258.389 190.174L259.595 191.56C259.163 192.064 258.617 192.454 257.957 192.73C257.309 192.994 256.565 193.126 255.725 193.126ZM273.816 183.28C274.584 183.28 275.262 183.43 275.85 183.73C276.45 184.03 276.918 184.492 277.254 185.116C277.59 185.728 277.758 186.52 277.758 187.492V193H275.508V187.78C275.508 186.928 275.322 186.292 274.95 185.872C274.578 185.452 274.044 185.242 273.348 185.242C272.856 185.242 272.418 185.35 272.034 185.566C271.662 185.782 271.368 186.1 271.152 186.52C270.948 186.94 270.846 187.474 270.846 188.122V193H268.596V187.78C268.596 186.928 268.41 186.292 268.038 185.872C267.666 185.452 267.132 185.242 266.436 185.242C265.944 185.242 265.506 185.35 265.122 185.566C264.75 185.782 264.456 186.1 264.24 186.52C264.036 186.94 263.934 187.474 263.934 188.122V193H261.684V183.388H263.826V185.944L263.448 185.188C263.772 184.564 264.24 184.09 264.852 183.766C265.476 183.442 266.184 183.28 266.976 183.28C267.876 183.28 268.656 183.502 269.316 183.946C269.988 184.39 270.432 185.062 270.648 185.962L269.766 185.656C270.078 184.936 270.594 184.36 271.314 183.928C272.034 183.496 272.868 183.28 273.816 183.28ZM284.449 193.126C283.381 193.126 282.445 192.916 281.641 192.496C280.849 192.064 280.231 191.476 279.787 190.732C279.355 189.988 279.139 189.142 279.139 188.194C279.139 187.234 279.349 186.388 279.769 185.656C280.201 184.912 280.789 184.33 281.533 183.91C282.289 183.49 283.147 183.28 284.107 183.28C285.043 183.28 285.877 183.484 286.609 183.892C287.341 184.3 287.917 184.876 288.337 185.62C288.757 186.364 288.967 187.24 288.967 188.248C288.967 188.344 288.961 188.452 288.949 188.572C288.949 188.692 288.943 188.806 288.931 188.914H280.921V187.42H287.743L286.861 187.888C286.873 187.336 286.759 186.85 286.519 186.43C286.279 186.01 285.949 185.68 285.529 185.44C285.121 185.2 284.647 185.08 284.107 185.08C283.555 185.08 283.069 185.2 282.649 185.44C282.241 185.68 281.917 186.016 281.677 186.448C281.449 186.868 281.335 187.366 281.335 187.942V188.302C281.335 188.878 281.467 189.388 281.731 189.832C281.995 190.276 282.367 190.618 282.847 190.858C283.327 191.098 283.879 191.218 284.503 191.218C285.043 191.218 285.529 191.134 285.961 190.966C286.393 190.798 286.777 190.534 287.113 190.174L288.319 191.56C287.887 192.064 287.341 192.454 286.681 192.73C286.033 192.994 285.289 193.126 284.449 193.126ZM295.862 183.28C296.63 183.28 297.314 183.43 297.914 183.73C298.526 184.03 299.006 184.492 299.354 185.116C299.702 185.728 299.876 186.52 299.876 187.492V193H297.626V187.78C297.626 186.928 297.422 186.292 297.014 185.872C296.618 185.452 296.06 185.242 295.34 185.242C294.812 185.242 294.344 185.35 293.936 185.566C293.528 185.782 293.21 186.106 292.982 186.538C292.766 186.958 292.658 187.492 292.658 188.14V193H290.408V183.388H292.55V185.98L292.172 185.188C292.508 184.576 292.994 184.108 293.63 183.784C294.278 183.448 295.022 183.28 295.862 183.28ZM305.628 193.126C304.572 193.126 303.756 192.856 303.18 192.316C302.604 191.764 302.316 190.954 302.316 189.886V181.264H304.566V189.832C304.566 190.288 304.68 190.642 304.908 190.894C305.148 191.146 305.478 191.272 305.898 191.272C306.402 191.272 306.822 191.14 307.158 190.876L307.788 192.478C307.524 192.694 307.2 192.856 306.816 192.964C306.432 193.072 306.036 193.126 305.628 193.126ZM300.732 185.26V183.46H307.14V185.26H300.732ZM311.889 193.126C311.085 193.126 310.311 193.024 309.567 192.82C308.835 192.604 308.253 192.346 307.821 192.046L308.685 190.336C309.117 190.612 309.633 190.84 310.233 191.02C310.833 191.2 311.433 191.29 312.033 191.29C312.741 191.29 313.251 191.194 313.563 191.002C313.887 190.81 314.049 190.552 314.049 190.228C314.049 189.964 313.941 189.766 313.725 189.634C313.509 189.49 313.227 189.382 312.879 189.31C312.531 189.238 312.141 189.172 311.709 189.112C311.289 189.052 310.863 188.974 310.431 188.878C310.011 188.77 309.627 188.62 309.279 188.428C308.931 188.224 308.649 187.954 308.433 187.618C308.217 187.282 308.109 186.838 308.109 186.286C308.109 185.674 308.283 185.146 308.631 184.702C308.979 184.246 309.465 183.898 310.089 183.658C310.725 183.406 311.475 183.28 312.339 183.28C312.987 183.28 313.641 183.352 314.301 183.496C314.961 183.64 315.507 183.844 315.939 184.108L315.075 185.818C314.619 185.542 314.157 185.356 313.689 185.26C313.233 185.152 312.777 185.098 312.321 185.098C311.637 185.098 311.127 185.2 310.791 185.404C310.467 185.608 310.305 185.866 310.305 186.178C310.305 186.466 310.413 186.682 310.629 186.826C310.845 186.97 311.127 187.084 311.475 187.168C311.823 187.252 312.207 187.324 312.627 187.384C313.059 187.432 313.485 187.51 313.905 187.618C314.325 187.726 314.709 187.876 315.057 188.068C315.417 188.248 315.705 188.506 315.921 188.842C316.137 189.178 316.245 189.616 316.245 190.156C316.245 190.756 316.065 191.278 315.705 191.722C315.357 192.166 314.859 192.514 314.211 192.766C313.563 193.006 312.789 193.126 311.889 193.126ZM316.869 195.718L317.913 191.74L318.219 193.072C317.799 193.072 317.445 192.946 317.157 192.694C316.881 192.43 316.743 192.076 316.743 191.632C316.743 191.176 316.881 190.816 317.157 190.552C317.445 190.276 317.793 190.138 318.201 190.138C318.621 190.138 318.969 190.276 319.245 190.552C319.521 190.828 319.659 191.188 319.659 191.632C319.659 191.752 319.647 191.884 319.623 192.028C319.599 192.16 319.557 192.316 319.497 192.496C319.449 192.676 319.365 192.904 319.245 193.18L318.327 195.718H316.869ZM327.516 193L323.988 183.388H326.112L329.136 191.866H328.128L331.296 183.388H333.186L336.264 191.866H335.274L338.388 183.388H340.386L336.84 193H334.68L331.872 185.494H332.538L329.676 193H327.516ZM345.269 193.126C344.285 193.126 343.409 192.916 342.641 192.496C341.873 192.064 341.267 191.476 340.823 190.732C340.379 189.988 340.157 189.142 340.157 188.194C340.157 187.234 340.379 186.388 340.823 185.656C341.267 184.912 341.873 184.33 342.641 183.91C343.409 183.49 344.285 183.28 345.269 183.28C346.265 183.28 347.147 183.49 347.915 183.91C348.695 184.33 349.301 184.906 349.733 185.638C350.177 186.37 350.399 187.222 350.399 188.194C350.399 189.142 350.177 189.988 349.733 190.732C349.301 191.476 348.695 192.064 347.915 192.496C347.147 192.916 346.265 193.126 345.269 193.126ZM345.269 191.2C345.821 191.2 346.313 191.08 346.745 190.84C347.177 190.6 347.513 190.252 347.753 189.796C348.005 189.34 348.131 188.806 348.131 188.194C348.131 187.57 348.005 187.036 347.753 186.592C347.513 186.136 347.177 185.788 346.745 185.548C346.313 185.308 345.827 185.188 345.287 185.188C344.735 185.188 344.243 185.308 343.811 185.548C343.391 185.788 343.055 186.136 342.803 186.592C342.551 187.036 342.425 187.57 342.425 188.194C342.425 188.806 342.551 189.34 342.803 189.796C343.055 190.252 343.391 190.6 343.811 190.84C344.243 191.08 344.729 191.2 345.269 191.2ZM351.831 193V183.388H353.973V186.034L353.721 185.26C354.009 184.612 354.459 184.12 355.071 183.784C355.695 183.448 356.469 183.28 357.393 183.28V185.422C357.297 185.398 357.207 185.386 357.123 185.386C357.039 185.374 356.955 185.368 356.871 185.368C356.019 185.368 355.341 185.62 354.837 186.124C354.333 186.616 354.081 187.354 354.081 188.338V193H351.831ZM362.562 193.126C361.638 193.126 360.804 192.922 360.06 192.514C359.328 192.094 358.752 191.518 358.332 190.786C357.912 190.054 357.702 189.19 357.702 188.194C357.702 187.198 357.912 186.334 358.332 185.602C358.752 184.87 359.328 184.3 360.06 183.892C360.804 183.484 361.638 183.28 362.562 183.28C363.366 183.28 364.086 183.46 364.722 183.82C365.358 184.168 365.862 184.702 366.234 185.422C366.606 186.142 366.792 187.066 366.792 188.194C366.792 189.31 366.612 190.234 366.252 190.966C365.892 191.686 365.394 192.226 364.758 192.586C364.122 192.946 363.39 193.126 362.562 193.126ZM362.832 191.2C363.372 191.2 363.852 191.08 364.272 190.84C364.704 190.6 365.046 190.252 365.298 189.796C365.562 189.34 365.694 188.806 365.694 188.194C365.694 187.57 365.562 187.036 365.298 186.592C365.046 186.136 364.704 185.788 364.272 185.548C363.852 185.308 363.372 185.188 362.832 185.188C362.292 185.188 361.806 185.308 361.374 185.548C360.954 185.788 360.612 186.136 360.348 186.592C360.096 187.036 359.97 187.57 359.97 188.194C359.97 188.806 360.096 189.34 360.348 189.796C360.612 190.252 360.954 190.6 361.374 190.84C361.806 191.08 362.292 191.2 362.832 191.2ZM365.748 193V190.732L365.838 188.176L365.658 185.62V179.644H367.89V193H365.748ZM373.101 193.126C372.297 193.126 371.523 193.024 370.779 192.82C370.047 192.604 369.465 192.346 369.033 192.046L369.897 190.336C370.329 190.612 370.845 190.84 371.445 191.02C372.045 191.2 372.645 191.29 373.245 191.29C373.953 191.29 374.463 191.194 374.775 191.002C375.099 190.81 375.261 190.552 375.261 190.228C375.261 189.964 375.153 189.766 374.937 189.634C374.721 189.49 374.439 189.382 374.091 189.31C373.743 189.238 373.353 189.172 372.921 189.112C372.501 189.052 372.075 188.974 371.643 188.878C371.223 188.77 370.839 188.62 370.491 188.428C370.143 188.224 369.861 187.954 369.645 187.618C369.429 187.282 369.321 186.838 369.321 186.286C369.321 185.674 369.495 185.146 369.843 184.702C370.191 184.246 370.677 183.898 371.301 183.658C371.937 183.406 372.687 183.28 373.551 183.28C374.199 183.28 374.853 183.352 375.513 183.496C376.173 183.64 376.719 183.844 377.151 184.108L376.287 185.818C375.831 185.542 375.369 185.356 374.901 185.26C374.445 185.152 373.989 185.098 373.533 185.098C372.849 185.098 372.339 185.2 372.003 185.404C371.679 185.608 371.517 185.866 371.517 186.178C371.517 186.466 371.625 186.682 371.841 186.826C372.057 186.97 372.339 187.084 372.687 187.168C373.035 187.252 373.419 187.324 373.839 187.384C374.271 187.432 374.697 187.51 375.117 187.618C375.537 187.726 375.921 187.876 376.269 188.068C376.629 188.248 376.917 188.506 377.133 188.842C377.349 189.178 377.457 189.616 377.457 190.156C377.457 190.756 377.277 191.278 376.917 191.722C376.569 192.166 376.071 192.514 375.423 192.766C374.775 193.006 374.001 193.126 373.101 193.126ZM1.52361 218V204.644H3.77361V218H1.52361ZM10.5247 218.126C9.45673 218.126 8.52073 217.916 7.71673 217.496C6.92473 217.064 6.30673 216.476 5.86273 215.732C5.43073 214.988 5.21473 214.142 5.21473 213.194C5.21473 212.234 5.42473 211.388 5.84473 210.656C6.27673 209.912 6.86473 209.33 7.60873 208.91C8.36473 208.49 9.22273 208.28 10.1827 208.28C11.1187 208.28 11.9527 208.484 12.6847 208.892C13.4167 209.3 13.9927 209.876 14.4127 210.62C14.8327 211.364 15.0427 212.24 15.0427 213.248C15.0427 213.344 15.0367 213.452 15.0247 213.572C15.0247 213.692 15.0187 213.806 15.0067 213.914H6.99673V212.42H13.8187L12.9367 212.888C12.9487 212.336 12.8347 211.85 12.5947 211.43C12.3547 211.01 12.0247 210.68 11.6047 210.44C11.1967 210.2 10.7227 210.08 10.1827 210.08C9.63073 210.08 9.14473 210.2 8.72473 210.44C8.31673 210.68 7.99273 211.016 7.75273 211.448C7.52473 211.868 7.41073 212.366 7.41073 212.942V213.302C7.41073 213.878 7.54273 214.388 7.80673 214.832C8.07073 215.276 8.44273 215.618 8.92273 215.858C9.40273 216.098 9.95473 216.218 10.5787 216.218C11.1187 216.218 11.6047 216.134 12.0367 215.966C12.4687 215.798 12.8527 215.534 13.1887 215.174L14.3947 216.56C13.9627 217.064 13.4167 217.454 12.7567 217.73C12.1087 217.994 11.3647 218.126 10.5247 218.126ZM22.1423 218V216.056L22.0163 215.642V212.24C22.0163 211.58 21.8183 211.07 21.4223 210.71C21.0263 210.338 20.4263 210.152 19.6223 210.152C19.0823 210.152 18.5483 210.236 18.0203 210.404C17.5043 210.572 17.0663 210.806 16.7063 211.106L15.8243 209.468C16.3403 209.072 16.9523 208.778 17.6603 208.586C18.3803 208.382 19.1243 208.28 19.8923 208.28C21.2843 208.28 22.3583 208.616 23.1143 209.288C23.8823 209.948 24.2663 210.974 24.2663 212.366V218H22.1423ZM19.1183 218.126C18.3983 218.126 17.7683 218.006 17.2283 217.766C16.6883 217.514 16.2683 217.172 15.9683 216.74C15.6803 216.296 15.5363 215.798 15.5363 215.246C15.5363 214.706 15.6623 214.22 15.9143 213.788C16.1783 213.356 16.6043 213.014 17.1923 212.762C17.7803 212.51 18.5603 212.384 19.5323 212.384H22.3223V213.878H19.6943C18.9263 213.878 18.4103 214.004 18.1463 214.256C17.8823 214.496 17.7503 214.796 17.7503 215.156C17.7503 215.564 17.9123 215.888 18.2363 216.128C18.5603 216.368 19.0103 216.488 19.5863 216.488C20.1383 216.488 20.6303 216.362 21.0623 216.11C21.5063 215.858 21.8243 215.486 22.0163 214.994L22.3943 216.344C22.1783 216.908 21.7883 217.346 21.2243 217.658C20.6723 217.97 19.9703 218.126 19.1183 218.126ZM26.4339 218V208.388H28.5759V211.034L28.3239 210.26C28.6119 209.612 29.0619 209.12 29.6739 208.784C30.2979 208.448 31.0719 208.28 31.9959 208.28V210.422C31.8999 210.398 31.8099 210.386 31.7259 210.386C31.6419 210.374 31.5579 210.368 31.4739 210.368C30.6219 210.368 29.9439 210.62 29.4399 211.124C28.9359 211.616 28.6839 212.354 28.6839 213.338V218H26.4339ZM38.6386 208.28C39.4066 208.28 40.0906 208.43 40.6906 208.73C41.3026 209.03 41.7826 209.492 42.1306 210.116C42.4786 210.728 42.6526 211.52 42.6526 212.492V218H40.4026V212.78C40.4026 211.928 40.1986 211.292 39.7906 210.872C39.3946 210.452 38.8366 210.242 38.1166 210.242C37.5886 210.242 37.1206 210.35 36.7126 210.566C36.3046 210.782 35.9866 211.106 35.7586 211.538C35.5426 211.958 35.4346 212.492 35.4346 213.14V218H33.1846V208.388H35.3266V210.98L34.9486 210.188C35.2846 209.576 35.7706 209.108 36.4066 208.784C37.0546 208.448 37.7986 208.28 38.6386 208.28ZM49.3225 218.126C48.2545 218.126 47.3185 217.916 46.5145 217.496C45.7225 217.064 45.1045 216.476 44.6605 215.732C44.2285 214.988 44.0125 214.142 44.0125 213.194C44.0125 212.234 44.2225 211.388 44.6425 210.656C45.0745 209.912 45.6625 209.33 46.4065 208.91C47.1625 208.49 48.0205 208.28 48.9805 208.28C49.9165 208.28 50.7505 208.484 51.4825 208.892C52.2145 209.3 52.7905 209.876 53.2105 210.62C53.6305 211.364 53.8405 212.24 53.8405 213.248C53.8405 213.344 53.8345 213.452 53.8225 213.572C53.8225 213.692 53.8165 213.806 53.8045 213.914H45.7945V212.42H52.6165L51.7345 212.888C51.7465 212.336 51.6325 211.85 51.3925 211.43C51.1525 211.01 50.8225 210.68 50.4025 210.44C49.9945 210.2 49.5205 210.08 48.9805 210.08C48.4285 210.08 47.9425 210.2 47.5225 210.44C47.1145 210.68 46.7905 211.016 46.5505 211.448C46.3225 211.868 46.2085 212.366 46.2085 212.942V213.302C46.2085 213.878 46.3405 214.388 46.6045 214.832C46.8685 215.276 47.2405 215.618 47.7205 215.858C48.2005 216.098 48.7525 216.218 49.3765 216.218C49.9165 216.218 50.4025 216.134 50.8345 215.966C51.2665 215.798 51.6505 215.534 51.9865 215.174L53.1925 216.56C52.7605 217.064 52.2145 217.454 51.5545 217.73C50.9065 217.994 50.1625 218.126 49.3225 218.126ZM59.3497 218.126C58.4257 218.126 57.5917 217.922 56.8477 217.514C56.1157 217.094 55.5397 216.518 55.1197 215.786C54.6997 215.054 54.4897 214.19 54.4897 213.194C54.4897 212.198 54.6997 211.334 55.1197 210.602C55.5397 209.87 56.1157 209.3 56.8477 208.892C57.5917 208.484 58.4257 208.28 59.3497 208.28C60.1537 208.28 60.8737 208.46 61.5097 208.82C62.1457 209.168 62.6497 209.702 63.0217 210.422C63.3937 211.142 63.5797 212.066 63.5797 213.194C63.5797 214.31 63.3997 215.234 63.0397 215.966C62.6797 216.686 62.1817 217.226 61.5457 217.586C60.9097 217.946 60.1777 218.126 59.3497 218.126ZM59.6197 216.2C60.1597 216.2 60.6397 216.08 61.0597 215.84C61.4917 215.6 61.8337 215.252 62.0857 214.796C62.3497 214.34 62.4817 213.806 62.4817 213.194C62.4817 212.57 62.3497 212.036 62.0857 211.592C61.8337 211.136 61.4917 210.788 61.0597 210.548C60.6397 210.308 60.1597 210.188 59.6197 210.188C59.0797 210.188 58.5937 210.308 58.1617 210.548C57.7417 210.788 57.3997 211.136 57.1357 211.592C56.8837 212.036 56.7577 212.57 56.7577 213.194C56.7577 213.806 56.8837 214.34 57.1357 214.796C57.3997 215.252 57.7417 215.6 58.1617 215.84C58.5937 216.08 59.0797 216.2 59.6197 216.2ZM62.5357 218V215.732L62.6257 213.176L62.4457 210.62V204.644H64.6777V218H62.5357ZM66.3252 220.718L67.3692 216.74L67.6752 218.072C67.2552 218.072 66.9012 217.946 66.6132 217.694C66.3372 217.43 66.1992 217.076 66.1992 216.632C66.1992 216.176 66.3372 215.816 66.6132 215.552C66.9012 215.276 67.2492 215.138 67.6572 215.138C68.0772 215.138 68.4252 215.276 68.7012 215.552C68.9772 215.828 69.1152 216.188 69.1152 216.632C69.1152 216.752 69.1032 216.884 69.0792 217.028C69.0552 217.16 69.0132 217.316 68.9532 217.496C68.9052 217.676 68.8212 217.904 68.7012 218.18L67.7832 220.718H66.3252ZM80.7703 218V216.056L80.6443 215.642V212.24C80.6443 211.58 80.4463 211.07 80.0503 210.71C79.6543 210.338 79.0543 210.152 78.2503 210.152C77.7103 210.152 77.1763 210.236 76.6483 210.404C76.1323 210.572 75.6943 210.806 75.3343 211.106L74.4523 209.468C74.9683 209.072 75.5803 208.778 76.2883 208.586C77.0083 208.382 77.7523 208.28 78.5203 208.28C79.9123 208.28 80.9863 208.616 81.7423 209.288C82.5103 209.948 82.8943 210.974 82.8943 212.366V218H80.7703ZM77.7463 218.126C77.0263 218.126 76.3963 218.006 75.8563 217.766C75.3163 217.514 74.8963 217.172 74.5963 216.74C74.3083 216.296 74.1643 215.798 74.1643 215.246C74.1643 214.706 74.2903 214.22 74.5423 213.788C74.8063 213.356 75.2323 213.014 75.8203 212.762C76.4083 212.51 77.1883 212.384 78.1603 212.384H80.9503V213.878H78.3223C77.5543 213.878 77.0383 214.004 76.7743 214.256C76.5103 214.496 76.3783 214.796 76.3783 215.156C76.3783 215.564 76.5403 215.888 76.8643 216.128C77.1883 216.368 77.6383 216.488 78.2143 216.488C78.7663 216.488 79.2583 216.362 79.6903 216.11C80.1343 215.858 80.4523 215.486 80.6443 214.994L81.0223 216.344C80.8063 216.908 80.4163 217.346 79.8523 217.658C79.3003 217.97 78.5983 218.126 77.7463 218.126ZM90.5159 208.28C91.2839 208.28 91.9679 208.43 92.5679 208.73C93.1799 209.03 93.6599 209.492 94.0079 210.116C94.3559 210.728 94.5299 211.52 94.5299 212.492V218H92.2799V212.78C92.2799 211.928 92.0759 211.292 91.6679 210.872C91.2719 210.452 90.7139 210.242 89.9939 210.242C89.4659 210.242 88.9979 210.35 88.5899 210.566C88.1819 210.782 87.8639 211.106 87.6359 211.538C87.4199 211.958 87.3119 212.492 87.3119 213.14V218H85.0619V208.388H87.2039V210.98L86.8259 210.188C87.1619 209.576 87.6479 209.108 88.2839 208.784C88.9319 208.448 89.6759 208.28 90.5159 208.28ZM100.75 218.126C99.8257 218.126 98.9917 217.922 98.2477 217.514C97.5157 217.094 96.9397 216.518 96.5197 215.786C96.0997 215.054 95.8897 214.19 95.8897 213.194C95.8897 212.198 96.0997 211.334 96.5197 210.602C96.9397 209.87 97.5157 209.3 98.2477 208.892C98.9917 208.484 99.8257 208.28 100.75 208.28C101.554 208.28 102.274 208.46 102.91 208.82C103.546 209.168 104.05 209.702 104.422 210.422C104.794 211.142 104.98 212.066 104.98 213.194C104.98 214.31 104.8 215.234 104.44 215.966C104.08 216.686 103.582 217.226 102.946 217.586C102.31 217.946 101.578 218.126 100.75 218.126ZM101.02 216.2C101.56 216.2 102.04 216.08 102.46 215.84C102.892 215.6 103.234 215.252 103.486 214.796C103.75 214.34 103.882 213.806 103.882 213.194C103.882 212.57 103.75 212.036 103.486 211.592C103.234 211.136 102.892 210.788 102.46 210.548C102.04 210.308 101.56 210.188 101.02 210.188C100.48 210.188 99.9937 210.308 99.5617 210.548C99.1417 210.788 98.7997 211.136 98.5357 211.592C98.2837 212.036 98.1577 212.57 98.1577 213.194C98.1577 213.806 98.2837 214.34 98.5357 214.796C98.7997 215.252 99.1417 215.6 99.5617 215.84C99.9937 216.08 100.48 216.2 101.02 216.2ZM103.936 218V215.732L104.026 213.176L103.846 210.62V204.644H106.078V218H103.936ZM124.706 208.28C125.474 208.28 126.152 208.43 126.74 208.73C127.34 209.03 127.808 209.492 128.144 210.116C128.48 210.728 128.648 211.52 128.648 212.492V218H126.398V212.78C126.398 211.928 126.212 211.292 125.84 210.872C125.468 210.452 124.934 210.242 124.238 210.242C123.746 210.242 123.308 210.35 122.924 210.566C122.552 210.782 122.258 211.1 122.042 211.52C121.838 211.94 121.736 212.474 121.736 213.122V218H119.486V212.78C119.486 211.928 119.3 211.292 118.928 210.872C118.556 210.452 118.022 210.242 117.326 210.242C116.834 210.242 116.396 210.35 116.012 210.566C115.64 210.782 115.346 211.1 115.13 211.52C114.926 211.94 114.824 212.474 114.824 213.122V218H112.574V208.388H114.716V210.944L114.338 210.188C114.662 209.564 115.13 209.09 115.742 208.766C116.366 208.442 117.074 208.28 117.866 208.28C118.766 208.28 119.546 208.502 120.206 208.946C120.878 209.39 121.322 210.062 121.538 210.962L120.656 210.656C120.968 209.936 121.484 209.36 122.204 208.928C122.924 208.496 123.758 208.28 124.706 208.28ZM130.803 218V208.388H133.053V218H130.803ZM131.937 206.804C131.517 206.804 131.169 206.672 130.893 206.408C130.629 206.144 130.497 205.826 130.497 205.454C130.497 205.07 130.629 204.752 130.893 204.5C131.169 204.236 131.517 204.104 131.937 204.104C132.357 204.104 132.699 204.23 132.963 204.482C133.239 204.722 133.377 205.028 133.377 205.4C133.377 205.796 133.245 206.132 132.981 206.408C132.717 206.672 132.369 206.804 131.937 206.804ZM138.256 218.126C137.452 218.126 136.678 218.024 135.934 217.82C135.202 217.604 134.62 217.346 134.188 217.046L135.052 215.336C135.484 215.612 136 215.84 136.6 216.02C137.2 216.2 137.8 216.29 138.4 216.29C139.108 216.29 139.618 216.194 139.93 216.002C140.254 215.81 140.416 215.552 140.416 215.228C140.416 214.964 140.308 214.766 140.092 214.634C139.876 214.49 139.594 214.382 139.246 214.31C138.898 214.238 138.508 214.172 138.076 214.112C137.656 214.052 137.23 213.974 136.798 213.878C136.378 213.77 135.994 213.62 135.646 213.428C135.298 213.224 135.016 212.954 134.8 212.618C134.584 212.282 134.476 211.838 134.476 211.286C134.476 210.674 134.65 210.146 134.998 209.702C135.346 209.246 135.832 208.898 136.456 208.658C137.092 208.406 137.842 208.28 138.706 208.28C139.354 208.28 140.008 208.352 140.668 208.496C141.328 208.64 141.874 208.844 142.306 209.108L141.442 210.818C140.986 210.542 140.524 210.356 140.056 210.26C139.6 210.152 139.144 210.098 138.688 210.098C138.004 210.098 137.494 210.2 137.158 210.404C136.834 210.608 136.672 210.866 136.672 211.178C136.672 211.466 136.78 211.682 136.996 211.826C137.212 211.97 137.494 212.084 137.842 212.168C138.19 212.252 138.574 212.324 138.994 212.384C139.426 212.432 139.852 212.51 140.272 212.618C140.692 212.726 141.076 212.876 141.424 213.068C141.784 213.248 142.072 213.506 142.288 213.842C142.504 214.178 142.612 214.616 142.612 215.156C142.612 215.756 142.432 216.278 142.072 216.722C141.724 217.166 141.226 217.514 140.578 217.766C139.93 218.006 139.156 218.126 138.256 218.126ZM147.448 218.126C146.392 218.126 145.576 217.856 145 217.316C144.424 216.764 144.136 215.954 144.136 214.886V206.264H146.386V214.832C146.386 215.288 146.5 215.642 146.728 215.894C146.968 216.146 147.298 216.272 147.718 216.272C148.222 216.272 148.642 216.14 148.978 215.876L149.608 217.478C149.344 217.694 149.02 217.856 148.636 217.964C148.252 218.072 147.856 218.126 147.448 218.126ZM142.552 210.26V208.46H148.96V210.26H142.552ZM156.661 218V216.056L156.535 215.642V212.24C156.535 211.58 156.337 211.07 155.941 210.71C155.545 210.338 154.945 210.152 154.141 210.152C153.601 210.152 153.067 210.236 152.539 210.404C152.023 210.572 151.585 210.806 151.225 211.106L150.343 209.468C150.859 209.072 151.471 208.778 152.179 208.586C152.899 208.382 153.643 208.28 154.411 208.28C155.803 208.28 156.877 208.616 157.633 209.288C158.401 209.948 158.785 210.974 158.785 212.366V218H156.661ZM153.637 218.126C152.917 218.126 152.287 218.006 151.747 217.766C151.207 217.514 150.787 217.172 150.487 216.74C150.199 216.296 150.055 215.798 150.055 215.246C150.055 214.706 150.181 214.22 150.433 213.788C150.697 213.356 151.123 213.014 151.711 212.762C152.299 212.51 153.079 212.384 154.051 212.384H156.841V213.878H154.213C153.445 213.878 152.929 214.004 152.665 214.256C152.401 214.496 152.269 214.796 152.269 215.156C152.269 215.564 152.431 215.888 152.755 216.128C153.079 216.368 153.529 216.488 154.105 216.488C154.657 216.488 155.149 216.362 155.581 216.11C156.025 215.858 156.343 215.486 156.535 214.994L156.913 216.344C156.697 216.908 156.307 217.346 155.743 217.658C155.191 217.97 154.489 218.126 153.637 218.126ZM162.788 215.858L162.842 213.032L167.864 208.388H170.564L166.298 212.672L165.11 213.662L162.788 215.858ZM160.952 218V204.644H163.202V218H160.952ZM168.206 218L164.696 213.662L166.118 211.862L170.942 218H168.206ZM175.807 218.126C174.739 218.126 173.803 217.916 172.999 217.496C172.207 217.064 171.589 216.476 171.145 215.732C170.713 214.988 170.497 214.142 170.497 213.194C170.497 212.234 170.707 211.388 171.127 210.656C171.559 209.912 172.147 209.33 172.891 208.91C173.647 208.49 174.505 208.28 175.465 208.28C176.401 208.28 177.235 208.484 177.967 208.892C178.699 209.3 179.275 209.876 179.695 210.62C180.115 211.364 180.325 212.24 180.325 213.248C180.325 213.344 180.319 213.452 180.307 213.572C180.307 213.692 180.301 213.806 180.289 213.914H172.279V212.42H179.101L178.219 212.888C178.231 212.336 178.117 211.85 177.877 211.43C177.637 211.01 177.307 210.68 176.887 210.44C176.479 210.2 176.005 210.08 175.465 210.08C174.913 210.08 174.427 210.2 174.007 210.44C173.599 210.68 173.275 211.016 173.035 211.448C172.807 211.868 172.693 212.366 172.693 212.942V213.302C172.693 213.878 172.825 214.388 173.089 214.832C173.353 215.276 173.725 215.618 174.205 215.858C174.685 216.098 175.237 216.218 175.861 216.218C176.401 216.218 176.887 216.134 177.319 215.966C177.751 215.798 178.135 215.534 178.471 215.174L179.677 216.56C179.245 217.064 178.699 217.454 178.039 217.73C177.391 217.994 176.647 218.126 175.807 218.126ZM184.736 218.126C183.932 218.126 183.158 218.024 182.414 217.82C181.682 217.604 181.1 217.346 180.668 217.046L181.532 215.336C181.964 215.612 182.48 215.84 183.08 216.02C183.68 216.2 184.28 216.29 184.88 216.29C185.588 216.29 186.098 216.194 186.41 216.002C186.734 215.81 186.896 215.552 186.896 215.228C186.896 214.964 186.788 214.766 186.572 214.634C186.356 214.49 186.074 214.382 185.726 214.31C185.378 214.238 184.988 214.172 184.556 214.112C184.136 214.052 183.71 213.974 183.278 213.878C182.858 213.77 182.474 213.62 182.126 213.428C181.778 213.224 181.496 212.954 181.28 212.618C181.064 212.282 180.956 211.838 180.956 211.286C180.956 210.674 181.13 210.146 181.478 209.702C181.826 209.246 182.312 208.898 182.936 208.658C183.572 208.406 184.322 208.28 185.186 208.28C185.834 208.28 186.488 208.352 187.148 208.496C187.808 208.64 188.354 208.844 188.786 209.108L187.922 210.818C187.466 210.542 187.004 210.356 186.536 210.26C186.08 210.152 185.624 210.098 185.168 210.098C184.484 210.098 183.974 210.2 183.638 210.404C183.314 210.608 183.152 210.866 183.152 211.178C183.152 211.466 183.26 211.682 183.476 211.826C183.692 211.97 183.974 212.084 184.322 212.168C184.67 212.252 185.054 212.324 185.474 212.384C185.906 212.432 186.332 212.51 186.752 212.618C187.172 212.726 187.556 212.876 187.904 213.068C188.264 213.248 188.552 213.506 188.768 213.842C188.984 214.178 189.092 214.616 189.092 215.156C189.092 215.756 188.912 216.278 188.552 216.722C188.204 217.166 187.706 217.514 187.058 217.766C186.41 218.006 185.636 218.126 184.736 218.126Z" fill="#757575"/>
<rect x="0.0476074" y="258" width="129" height="44" rx="22" fill="#C3DCE3"/>
<path d="M27.0556 286.192C26.1596 286.192 25.3009 286.075 24.4796 285.84C23.6583 285.595 22.9969 285.28 22.4956 284.896L23.3756 282.944C23.8556 283.285 24.4209 283.568 25.0716 283.792C25.7329 284.005 26.3996 284.112 27.0716 284.112C27.5836 284.112 27.9943 284.064 28.3036 283.968C28.6236 283.861 28.8583 283.717 29.0076 283.536C29.1569 283.355 29.2316 283.147 29.2316 282.912C29.2316 282.613 29.1143 282.379 28.8796 282.208C28.6449 282.027 28.3356 281.883 27.9516 281.776C27.5676 281.659 27.1409 281.552 26.6716 281.456C26.2129 281.349 25.7489 281.221 25.2796 281.072C24.8209 280.923 24.3996 280.731 24.0156 280.496C23.6316 280.261 23.3169 279.952 23.0716 279.568C22.8369 279.184 22.7196 278.693 22.7196 278.096C22.7196 277.456 22.8903 276.875 23.2316 276.352C23.5836 275.819 24.1063 275.397 24.7996 275.088C25.5036 274.768 26.3836 274.608 27.4396 274.608C28.1436 274.608 28.8369 274.693 29.5196 274.864C30.2023 275.024 30.8049 275.269 31.3276 275.6L30.5276 277.568C30.0049 277.269 29.4823 277.051 28.9596 276.912C28.4369 276.763 27.9249 276.688 27.4236 276.688C26.9223 276.688 26.5116 276.747 26.1916 276.864C25.8716 276.981 25.6423 277.136 25.5036 277.328C25.3649 277.509 25.2956 277.723 25.2956 277.968C25.2956 278.256 25.4129 278.491 25.6476 278.672C25.8823 278.843 26.1916 278.981 26.5756 279.088C26.9596 279.195 27.3809 279.301 27.8396 279.408C28.3089 279.515 28.7729 279.637 29.2316 279.776C29.7009 279.915 30.1276 280.101 30.5116 280.336C30.8956 280.571 31.2049 280.88 31.4396 281.264C31.6849 281.648 31.8076 282.133 31.8076 282.72C31.8076 283.349 31.6316 283.925 31.2796 284.448C30.9276 284.971 30.3996 285.392 29.6956 285.712C29.0023 286.032 28.1223 286.192 27.0556 286.192ZM36.2827 286.128C35.2694 286.128 34.4801 285.872 33.9147 285.36C33.3494 284.837 33.0667 284.064 33.0667 283.04V275.488H35.5627V283.008C35.5627 283.371 35.6587 283.653 35.8507 283.856C36.0427 284.048 36.3041 284.144 36.6347 284.144C37.0294 284.144 37.3654 284.037 37.6427 283.824L38.3147 285.584C38.0587 285.765 37.7494 285.904 37.3867 286C37.0347 286.085 36.6667 286.128 36.2827 286.128ZM31.7387 279.504V277.584H37.7067V279.504H31.7387ZM44.3559 286V284.32L44.1959 283.952V280.944C44.1959 280.411 44.0305 279.995 43.6999 279.696C43.3799 279.397 42.8839 279.248 42.2119 279.248C41.7532 279.248 41.2999 279.323 40.8519 279.472C40.4145 279.611 40.0412 279.803 39.7319 280.048L38.8359 278.304C39.3052 277.973 39.8705 277.717 40.5319 277.536C41.1932 277.355 41.8652 277.264 42.5479 277.264C43.8599 277.264 44.8785 277.573 45.6039 278.192C46.3292 278.811 46.6919 279.776 46.6919 281.088V286H44.3559ZM41.7319 286.128C41.0599 286.128 40.4839 286.016 40.0039 285.792C39.5239 285.557 39.1559 285.243 38.8999 284.848C38.6439 284.453 38.5159 284.011 38.5159 283.52C38.5159 283.008 38.6385 282.56 38.8839 282.176C39.1399 281.792 39.5399 281.493 40.0839 281.28C40.6279 281.056 41.3372 280.944 42.2119 280.944H44.4999V282.4H42.4839C41.8972 282.4 41.4919 282.496 41.2679 282.688C41.0545 282.88 40.9479 283.12 40.9479 283.408C40.9479 283.728 41.0705 283.984 41.3159 284.176C41.5719 284.357 41.9185 284.448 42.3559 284.448C42.7719 284.448 43.1452 284.352 43.4759 284.16C43.8065 283.957 44.0465 283.664 44.1959 283.28L44.5799 284.432C44.3985 284.987 44.0679 285.408 43.5879 285.696C43.1079 285.984 42.4892 286.128 41.7319 286.128ZM51.8309 286.128C50.8175 286.128 50.0282 285.872 49.4629 285.36C48.8975 284.837 48.6149 284.064 48.6149 283.04V275.488H51.1109V283.008C51.1109 283.371 51.2069 283.653 51.3989 283.856C51.5909 284.048 51.8522 284.144 52.1829 284.144C52.5775 284.144 52.9135 284.037 53.1909 283.824L53.8629 285.584C53.6069 285.765 53.2975 285.904 52.9349 286C52.5829 286.085 52.2149 286.128 51.8309 286.128ZM47.2869 279.504V277.584H53.2549V279.504H47.2869ZM54.624 286V277.392H57.12V286H54.624ZM55.872 276.192C55.4133 276.192 55.04 276.059 54.752 275.792C54.464 275.525 54.32 275.195 54.32 274.8C54.32 274.405 54.464 274.075 54.752 273.808C55.04 273.541 55.4133 273.408 55.872 273.408C56.3306 273.408 56.704 273.536 56.992 273.792C57.28 274.037 57.424 274.357 57.424 274.752C57.424 275.168 57.28 275.515 56.992 275.792C56.7146 276.059 56.3413 276.192 55.872 276.192ZM61.6925 286.128C60.9565 286.128 60.2471 286.043 59.5645 285.872C58.8925 285.691 58.3591 285.467 57.9645 285.2L58.7965 283.408C59.1911 283.653 59.6551 283.856 60.1885 284.016C60.7325 284.165 61.2658 284.24 61.7885 284.24C62.3645 284.24 62.7698 284.171 63.0045 284.032C63.2498 283.893 63.3725 283.701 63.3725 283.456C63.3725 283.253 63.2765 283.104 63.0845 283.008C62.9031 282.901 62.6578 282.821 62.3485 282.768C62.0391 282.715 61.6978 282.661 61.3245 282.608C60.9618 282.555 60.5938 282.485 60.2205 282.4C59.8471 282.304 59.5058 282.165 59.1965 281.984C58.8871 281.803 58.6365 281.557 58.4445 281.248C58.2631 280.939 58.1725 280.539 58.1725 280.048C58.1725 279.504 58.3271 279.024 58.6365 278.608C58.9565 278.192 59.4151 277.867 60.0125 277.632C60.6098 277.387 61.3245 277.264 62.1565 277.264C62.7431 277.264 63.3405 277.328 63.9485 277.456C64.5565 277.584 65.0631 277.771 65.4685 278.016L64.6365 279.792C64.2205 279.547 63.7991 279.381 63.3725 279.296C62.9565 279.2 62.5511 279.152 62.1565 279.152C61.6018 279.152 61.1965 279.227 60.9405 279.376C60.6845 279.525 60.5565 279.717 60.5565 279.952C60.5565 280.165 60.6471 280.325 60.8285 280.432C61.0205 280.539 61.2711 280.624 61.5805 280.688C61.8898 280.752 62.2258 280.811 62.5885 280.864C62.9618 280.907 63.3351 280.976 63.7085 281.072C64.0818 281.168 64.4178 281.307 64.7165 281.488C65.0258 281.659 65.2765 281.899 65.4685 282.208C65.6605 282.507 65.7565 282.901 65.7565 283.392C65.7565 283.925 65.5965 284.4 65.2765 284.816C64.9565 285.221 64.4925 285.541 63.8845 285.776C63.2871 286.011 62.5565 286.128 61.6925 286.128ZM70.1765 286.128C69.1631 286.128 68.3738 285.872 67.8085 285.36C67.2431 284.837 66.9605 284.064 66.9605 283.04V275.488H69.4565V283.008C69.4565 283.371 69.5525 283.653 69.7445 283.856C69.9365 284.048 70.1978 284.144 70.5285 284.144C70.9231 284.144 71.2591 284.037 71.5365 283.824L72.2085 285.584C71.9525 285.765 71.6431 285.904 71.2805 286C70.9285 286.085 70.5605 286.128 70.1765 286.128ZM65.6325 279.504V277.584H71.6005V279.504H65.6325ZM72.9696 286V277.392H75.4656V286H72.9696ZM74.2176 276.192C73.7589 276.192 73.3856 276.059 73.0976 275.792C72.8096 275.525 72.6656 275.195 72.6656 274.8C72.6656 274.405 72.8096 274.075 73.0976 273.808C73.3856 273.541 73.7589 273.408 74.2176 273.408C74.6763 273.408 75.0496 273.536 75.3376 273.792C75.6256 274.037 75.7696 274.357 75.7696 274.752C75.7696 275.168 75.6256 275.515 75.3376 275.792C75.0603 276.059 74.6869 276.192 74.2176 276.192ZM81.3021 286.128C80.3741 286.128 79.5474 285.941 78.8221 285.568C78.0968 285.184 77.5261 284.656 77.1101 283.984C76.7048 283.312 76.5021 282.549 76.5021 281.696C76.5021 280.832 76.7048 280.069 77.1101 279.408C77.5261 278.736 78.0968 278.213 78.8221 277.84C79.5474 277.456 80.3741 277.264 81.3021 277.264C82.2088 277.264 82.9981 277.456 83.6701 277.84C84.3421 278.213 84.8381 278.752 85.1581 279.456L83.2221 280.496C82.9981 280.091 82.7154 279.792 82.3741 279.6C82.0434 279.408 81.6808 279.312 81.2861 279.312C80.8594 279.312 80.4754 279.408 80.1341 279.6C79.7928 279.792 79.5208 280.064 79.3181 280.416C79.1261 280.768 79.0301 281.195 79.0301 281.696C79.0301 282.197 79.1261 282.624 79.3181 282.976C79.5208 283.328 79.7928 283.6 80.1341 283.792C80.4754 283.984 80.8594 284.08 81.2861 284.08C81.6808 284.08 82.0434 283.989 82.3741 283.808C82.7154 283.616 82.9981 283.312 83.2221 282.896L85.1581 283.952C84.8381 284.645 84.3421 285.184 83.6701 285.568C82.9981 285.941 82.2088 286.128 81.3021 286.128ZM88.8512 286.128C88.1152 286.128 87.4059 286.043 86.7232 285.872C86.0512 285.691 85.5179 285.467 85.1232 285.2L85.9552 283.408C86.3499 283.653 86.8139 283.856 87.3472 284.016C87.8912 284.165 88.4246 284.24 88.9472 284.24C89.5232 284.24 89.9286 284.171 90.1632 284.032C90.4086 283.893 90.5312 283.701 90.5312 283.456C90.5312 283.253 90.4352 283.104 90.2432 283.008C90.0619 282.901 89.8166 282.821 89.5072 282.768C89.1979 282.715 88.8566 282.661 88.4832 282.608C88.1206 282.555 87.7526 282.485 87.3792 282.4C87.0059 282.304 86.6646 282.165 86.3552 281.984C86.0459 281.803 85.7952 281.557 85.6032 281.248C85.4219 280.939 85.3312 280.539 85.3312 280.048C85.3312 279.504 85.4859 279.024 85.7952 278.608C86.1152 278.192 86.5739 277.867 87.1712 277.632C87.7686 277.387 88.4832 277.264 89.3152 277.264C89.9019 277.264 90.4992 277.328 91.1072 277.456C91.7152 277.584 92.2219 277.771 92.6272 278.016L91.7952 279.792C91.3792 279.547 90.9579 279.381 90.5312 279.296C90.1152 279.2 89.7099 279.152 89.3152 279.152C88.7606 279.152 88.3552 279.227 88.0992 279.376C87.8432 279.525 87.7152 279.717 87.7152 279.952C87.7152 280.165 87.8059 280.325 87.9872 280.432C88.1792 280.539 88.4299 280.624 88.7392 280.688C89.0486 280.752 89.3846 280.811 89.7472 280.864C90.1206 280.907 90.4939 280.976 90.8672 281.072C91.2406 281.168 91.5766 281.307 91.8752 281.488C92.1846 281.659 92.4352 281.899 92.6272 282.208C92.8192 282.507 92.9152 282.901 92.9152 283.392C92.9152 283.925 92.7552 284.4 92.4352 284.816C92.1152 285.221 91.6512 285.541 91.0432 285.776C90.4459 286.011 89.7152 286.128 88.8512 286.128ZM102.602 277.984L104.97 281.584L102.602 285.216H100.442L102.618 281.584L100.442 277.984H102.602ZM103.082 280.72V282.464H97.3545V280.72H103.082Z" fill="#2B788B"/>
</svg>
